
<svg width="52px" height="7px" viewBox="0 0 52 7" version="1.1" xmlns="http://www.w3.org/2000/svg" xmlns:xlink="http://www.w3.org/1999/xlink">
    <g id="Page-1" stroke="none" stroke-width="1" fill="none" fill-rule="evenodd">
        <g id="10.2”-iPad-Copy-11" transform="translate(-73.000000, -370.000000)" fill="#000000" fill-rule="nonzero">
            <path d="M88.734,375.194 L88.6679444,375.197222 C88.5444259,375.207963 88.3537778,375.245556 88.096,375.31 C87.7866667,375.387333 87.574,375.368 87.458,375.252 C87.1873333,375.406667 86.6266667,375.445333 85.776,375.368 C85.8146667,375.290667 85.9113333,375.242333 86.066,375.223 C86.2206667,375.203667 86.356,375.232667 86.472,375.31 C86.472,375.194 86.4913333,375.136 86.53,375.136 C86.762,375.174667 87.2453333,375.136 87.98,375.02 C88.7146667,374.904 89.2366667,374.904 89.546,375.02 C89.5073333,375.097333 89.3623333,375.126333 89.111,375.107 C88.8596667,375.087667 88.734,375.116667 88.734,375.194 L88.734,375.194 Z M104.336,371.134 C104.336,371.134 104.645333,371.114667 105.264,371.076 C105.418667,371.076 105.457333,371.018 105.38,370.902 C105.264,370.979333 105.070667,370.998667 104.8,370.96 C104.529333,370.921333 104.374667,370.979333 104.336,371.134 Z M95.346,371.366 C95.1913333,371.404667 95.0946667,371.366 95.056,371.25 C95.2493333,371.172667 95.404,371.143667 95.52,371.163 C95.636,371.182333 95.6746667,371.25 95.636,371.366 L95.636,371.366 L95.346,371.366 Z M102.016,371.83 C101.706667,371.714 101.416667,371.714 101.146,371.83 C101.107333,371.791333 101.088,371.733333 101.088,371.656 C101.010667,371.733333 100.923667,371.733333 100.827,371.656 C100.730333,371.578667 100.604667,371.578667 100.45,371.656 L100.45,371.656 L100.45,371.424 C100.643333,371.424 100.74,371.385333 100.74,371.308 C100.972,371.308 101.146,371.366 101.262,371.482 L101.262,371.482 L101.262,371.308 C101.378,371.269333 101.465,371.269333 101.523,371.308 C101.581,371.346667 101.590667,371.424 101.552,371.54 C101.938667,371.424 102.760333,371.375667 104.017,371.395 C104.352111,371.400156 104.653539,371.403249 104.921284,371.40428 L105.29764,371.40428 C105.82428,371.40196 106.1804,371.3892 106.366,371.366 C106.288667,371.559333 106.027667,371.627 105.583,371.569 C105.138333,371.511 104.838667,371.520667 104.684,371.598 C104.258667,371.752667 103.93,371.810667 103.698,371.772 C103.698,371.733333 103.736667,371.694667 103.814,371.656 L103.814,371.656 L103.93,371.656 C103.504667,371.501333 102.866667,371.559333 102.016,371.83 Z M111.992,371.888 C111.992,371.810667 112.011333,371.772 112.05,371.772 L112.05,371.772 L112.108,371.714 C111.682667,371.752667 110.986667,371.762333 110.02,371.743 C109.053333,371.723667 108.318667,371.752667 107.816,371.83 C107.777333,371.714 107.777333,371.636667 107.816,371.598 C107.738667,371.559333 107.651667,371.549667 107.555,371.569 C107.458333,371.588333 107.390667,371.598 107.352,371.598 C107.313333,371.636667 107.245667,371.685 107.149,371.743 C107.052333,371.801 106.984667,371.849333 106.946,371.888 L106.946,371.888 L106.772,371.424 C107.313333,371.424 108.193,371.443333 109.411,371.482 C110.629,371.520667 111.547333,371.520667 112.166,371.482 C112.204667,371.482 112.224,371.54 112.224,371.656 C112.494667,371.578667 112.833,371.559333 113.239,371.598 C113.645,371.636667 113.925333,371.598 114.08,371.482 C114.196,371.559333 114.428,371.598 114.776,371.598 C115.124,371.598 115.336667,371.675333 115.414,371.83 C115.104667,371.868667 114.534333,371.859 113.703,371.801 C112.871667,371.743 112.301333,371.772 111.992,371.888 Z M116.458,372.12 C116.342,372.042667 116.206667,372.004 116.052,372.004 C115.897333,372.004 115.781333,371.984667 115.704,371.946 C115.704,371.907333 115.723333,371.868667 115.762,371.83 C115.762,371.791333 115.723333,371.772 115.646,371.772 C115.53,371.810667 115.472,371.810667 115.472,371.772 C115.626667,371.617333 115.839333,371.588333 116.11,371.685 C116.380667,371.781667 116.574,371.772 116.69,371.656 C116.806,371.656 116.864,371.733333 116.864,371.888 C116.825333,371.926667 116.709333,371.946 116.516,371.946 C116.438667,371.946 116.419333,372.004 116.458,372.12 Z M120.982,373.338 C120.943333,373.260667 120.827333,373.231667 120.634,373.251 C120.440667,373.270333 120.305333,373.260667 120.228,373.222 L120.228,373.222 L120.228,373.048 C120.266667,373.009333 120.382667,372.999667 120.576,373.019 C120.769333,373.038333 120.904667,373.048 120.982,373.048 L120.982,373.048 L120.982,373.338 Z M93.432,373.57 C92.504,373.724667 91.808,373.763333 91.344,373.686 C92.0013333,373.299333 92.6973333,373.260667 93.432,373.57 Z M87.342,374.034 C87.2646667,373.802 87.3806667,373.657 87.69,373.599 C87.9993333,373.541 88.2506667,373.550667 88.444,373.628 C88.3666667,373.705333 88.1926667,373.753667 87.922,373.773 C87.6513333,373.792333 87.458,373.879333 87.342,374.034 Z M100.16,374.092 C100.121333,373.898667 100.256667,373.879333 100.566,374.034 L100.566,374.034 L100.566,373.918 C100.604667,373.918 100.624,373.898667 100.624,373.86 C100.005333,373.666667 99.696,373.724667 99.696,374.034 C99.7346667,373.918 99.8023333,373.898667 99.899,373.976 C99.9956667,374.053333 100.082667,374.092 100.16,374.092 Z M95.926,374.266 C95.8873333,374.188667 95.81,374.15 95.694,374.15 C95.578,374.15 95.5006667,374.130667 95.462,374.092 L95.462,374.092 L95.578,373.86 C95.6553333,373.86 95.7326667,373.898667 95.81,373.976 C95.8873333,374.053333 95.984,374.092 96.1,374.092 C96.1386667,374.130667 96.1483333,374.159667 96.129,374.179 C96.1096667,374.198333 96.0806667,374.208 96.042,374.208 C95.9646667,374.208 95.926,374.227333 95.926,374.266 Z M93.432,374.382 C93.3546667,374.343333 93.2773333,374.333667 93.2,374.353 C93.1226667,374.372333 93.0453333,374.372333 92.968,374.353 C92.8906667,374.333667 92.852,374.304667 92.852,374.266 C92.9293333,374.111333 93.055,374.043667 93.229,374.063 C93.403,374.082333 93.4706667,374.188667 93.432,374.382 Z M103.176,374.382 C104.142667,374.382 104.935333,374.362667 105.554,374.324 C105.283333,374.208 105.032,374.188667 104.8,374.266 C104.026667,374.072667 103.485333,374.111333 103.176,374.382 Z M114.254,374.846 L114.173444,374.895944 C114.033815,374.965759 113.867333,374.968444 113.674,374.904 C113.828667,374.633333 114.022,374.614 114.254,374.846 L114.254,374.846 Z M85.544,375.194 L84.268,375.194 C84.384,375.000667 84.5966667,374.913667 84.906,374.933 C85.2153333,374.952333 85.428,375.039333 85.544,375.194 L85.544,375.194 Z M95.346,375.948 C95.4233333,375.870667 95.5586667,375.812667 95.752,375.774 C95.9453333,375.735333 96.0613333,375.696667 96.1,375.658 C97.1826667,375.851333 98.1106667,375.89 98.884,375.774 C99.4253333,375.89 99.7153333,375.909333 99.754,375.832 C99.058,375.6 97.608,375.542 95.404,375.658 C94.8626667,375.464667 94.534,375.503333 94.418,375.774 C94.8046667,375.735333 95.114,375.793333 95.346,375.948 Z M109.324,375.89 C109.517333,375.774 109.904,375.745 110.484,375.803 C111.064,375.861 111.431333,375.812667 111.586,375.658 L111.586,375.658 L111.362943,375.657211 C110.579965,375.652213 109.068984,375.623476 106.83,375.571 C106.155091,375.555182 105.550645,375.545835 105.016661,375.542959 L104.506165,375.54224 C103.369813,375.545595 102.617091,375.584182 102.248,375.658 C101.552,375.503333 101.03,375.522667 100.682,375.716 C101.648667,375.716 102.19,375.735333 102.306,375.774 C102.460667,375.696667 102.712,375.687 103.06,375.745 L103.204408,375.764531 C103.483755,375.792939 103.706286,375.757429 103.872,375.658 C106.269333,375.735333 108.086667,375.812667 109.324,375.89 Z M115.414,375.89 C115.375333,375.851333 115.317333,375.832 115.24,375.832 C115.162667,375.832 115.104667,375.793333 115.066,375.716 C114.756667,375.754667 114.157333,375.735333 113.268,375.658 C112.378667,375.580667 111.837333,375.638667 111.644,375.832 C112.069333,375.832 112.678333,375.841667 113.471,375.861 C114.263667,375.880333 114.911333,375.89 115.414,375.89 Z M86.356,376.18 C86.3173333,376.025333 86.182,375.977 85.95,376.035 C85.718,376.093 85.5826667,376.064 85.544,375.948 C85.66,375.948 85.892,375.928667 86.24,375.89 C86.588,375.851333 86.8393333,375.851333 86.994,375.89 C86.9553333,376.006 86.8586667,376.064 86.704,376.064 C86.5493333,376.064 86.4333333,376.102667 86.356,376.18 Z M88.734,375.194 L88.8422969,375.206234 C89.110849,375.229495 89.4904167,375.21575 89.981,375.165 C90.5416667,375.107 90.9573333,375.116667 91.228,375.194 C91.3053333,375.039333 91.3826667,374.981333 91.46,375.02 C92.62,375.02 94.36,374.981333 96.68,374.904 C96.7186667,374.942667 96.9506667,374.962 97.376,374.962 C97.8013333,375.116667 98.4683333,375.194 99.377,375.194 C100.285667,375.194 100.875333,375.252 101.146,375.368 C101.146,375.252 101.165333,375.194 101.204,375.194 C101.242667,375.232667 101.407,375.223 101.697,375.165 C101.987,375.107 102.132,375.136 102.132,375.252 C103.137333,374.942667 104.065333,374.962 104.916,375.31 C104.954667,375.194 105.109333,375.097333 105.38,375.02 C105.457333,375.058667 105.699,375.068333 106.105,375.049 C106.511,375.029667 106.849333,375.039333 107.12,375.078 C107.236,374.846 107.516333,374.797667 107.961,374.933 C108.405667,375.068333 108.686,375.097333 108.802,375.02 C108.879333,375.136 108.995333,375.213333 109.15,375.252 C109.304667,375.290667 109.44,375.31 109.556,375.31 C109.672,375.31 109.817,375.300333 109.991,375.281 C110.165,375.261667 110.290667,375.252 110.368,375.252 C110.561333,375.290667 110.803,375.319667 111.093,375.339 C111.383,375.358333 111.624667,375.387333 111.818,375.426 C111.895333,375.348667 112.011333,375.300333 112.166,375.281 C112.320667,375.261667 112.475333,375.261667 112.63,375.281 C112.784667,375.300333 112.958667,375.290667 113.152,375.252 C113.461333,375.406667 114.041333,375.455 114.892,375.397 C115.742667,375.339 116.284,375.329333 116.516,375.368 C116.670667,375.368 116.912333,375.406667 117.241,375.484 C117.569667,375.561333 117.85,375.580667 118.082,375.542 C118.120667,375.542 118.159333,375.503333 118.198,375.426 C118.236667,375.348667 118.275333,375.329333 118.314,375.368 C118.507333,375.445333 118.836,375.561333 119.3,375.716 C119.338667,375.638667 119.3,375.6 119.184,375.6 C119.106667,375.6 119.068,375.580667 119.068,375.542 C119.377333,375.232667 119.764,375.194 120.228,375.426 C120.344,375.31 120.585667,375.223 120.953,375.165 C121.320333,375.107 121.581333,374.981333 121.736,374.788 C120.885333,374.788 119.416,374.739667 117.328,374.643 C115.24,374.546333 113.674,374.536667 112.63,374.614 C113.016667,374.691333 113.229333,374.749333 113.268,374.788 C112.997333,374.865333 112.572,374.875 111.992,374.817 C111.412,374.759 110.986667,374.807333 110.716,374.962 C110.6,374.807333 110.368,374.739667 110.02,374.759 C109.672,374.778333 109.420667,374.710667 109.266,374.556 C108.995333,374.633333 108.763333,374.633333 108.57,374.556 C108.57,374.594667 108.608667,374.633333 108.686,374.672 C108.763333,374.710667 108.744,374.749333 108.628,374.788 C108.628,374.710667 108.521667,374.652667 108.309,374.614 C108.096333,374.575333 107.99,374.498 107.99,374.382 C107.758,374.498 107.400333,374.556 106.917,374.556 C106.433667,374.556 106.076,374.594667 105.844,374.672 C105.844,374.633333 105.815,374.594667 105.757,374.556 C105.699,374.517333 105.689333,374.478667 105.728,374.44 C105.418667,374.556 104.626,374.594667 103.35,374.556 C102.074,374.517333 101.262,374.498 100.914,374.498 C100.914,374.459333 100.933333,374.420667 100.972,374.382 L100.972,374.382 L100.972,374.324 C100.392,374.169333 99.9473333,374.15 99.638,374.266 C99.7926667,374.304667 99.9956667,374.324 100.247,374.324 C100.498333,374.324 100.662667,374.362667 100.74,374.44 C100.585333,374.478667 100.334,374.478667 99.986,374.44 C99.638,374.401333 99.3286667,374.44 99.058,374.556 C98.942,374.44 98.884,374.362667 98.884,374.324 C98.768,374.362667 98.6326667,374.372333 98.478,374.353 C98.3233333,374.333667 98.2073333,374.362667 98.13,374.44 C98.0913333,374.362667 98.1106667,374.304667 98.188,374.266 L98.188,374.266 L98.188,374.092 C98.6133333,373.898667 98.8646667,373.782667 98.942,373.744 C98.6326667,373.821333 98.4006667,373.821333 98.246,373.744 L98.246,373.744 L98.188,373.86 C98.1493333,373.937333 98.1106667,373.995333 98.072,374.034 C97.956,373.531333 97.5886667,373.473333 96.97,373.86 C96.854,373.782667 96.6413333,373.734333 96.332,373.715 C96.0226667,373.695667 95.7906667,373.666667 95.636,373.628 C95.5586667,373.666667 95.4813333,373.734333 95.404,373.831 C95.3266667,373.927667 95.2686667,373.995333 95.23,374.034 C94.9206667,374.034 94.6886667,374.053333 94.534,374.092 C94.4953333,374.014667 94.4856667,373.947 94.505,373.889 L94.5108,373.85768 C94.5108,373.82056 94.4798667,373.802 94.418,373.802 C94.302,373.918 94.2246667,373.976 94.186,373.976 C94.186,373.744 94.2246667,373.608667 94.302,373.57 C94.6113333,373.647333 94.824,373.608667 94.94,373.454 C95.1333333,373.531333 95.3653333,373.512 95.636,373.396 C95.9066667,373.28 96.1,373.222 96.216,373.222 L96.216,373.222 L96.216,373.28 C96.1773333,373.357333 96.158,373.415333 96.158,373.454 C96.2353333,373.454 96.2933333,373.405667 96.332,373.309 C96.3706667,373.212333 96.448,373.183333 96.564,373.222 C96.5253333,373.222 96.506,373.241333 96.506,373.28 C96.506,373.318667 96.5253333,373.357333 96.564,373.396 C96.6026667,373.318667 96.6993333,373.28 96.854,373.28 L96.854,373.28 L97.086,373.222 C97.2793333,373.415333 97.6756667,373.521667 98.275,373.541 C98.8743333,373.560333 99.2706667,373.589333 99.464,373.628 C99.58,373.512 99.7153333,373.454 99.87,373.454 C101.107333,373.376667 102.286667,373.434667 103.408,373.628 C103.524,373.550667 103.785,373.550667 104.191,373.628 C104.597,373.705333 104.858,373.686 104.974,373.57 C105.592667,373.763333 106.114667,373.763333 106.54,373.57 C106.810667,373.802 107.158667,373.802 107.584,373.57 C107.738667,373.57 108.734333,373.618333 110.571,373.715 C112.407667,373.811667 113.712667,373.937333 114.486,374.092 C114.486,374.014667 114.602,373.918 114.834,373.802 L114.834,373.802 L114.834,373.976 C114.911333,373.976 115.298,373.995333 115.994,374.034 C116.69,374.072667 117.115333,374.072667 117.27,374.034 L117.27,374.034 L117.212,374.208 C117.637333,374.169333 118.372,374.179 119.416,374.237 C120.46,374.295 121.175333,374.266 121.562,374.15 C122.412667,374.382 123.108667,374.420667 123.65,374.266 C123.688667,374.072667 123.804667,374.014667 123.998,374.092 L123.998,374.092 L124.346,374.092 L124.288,374.034 L124.288,373.976 C124.404,373.782667 124.539333,373.763333 124.694,373.918 L124.694,373.918 L124.694,373.744 C124.732667,373.666667 124.694,373.647333 124.578,373.686 C124.462,373.724667 124.423333,373.686 124.462,373.57 C124.500667,373.531333 124.578,373.492667 124.694,373.454 L124.694,373.454 L124.868,373.396 C124.906667,373.28 124.906667,373.202667 124.868,373.164 C124.829333,373.125333 124.81,373.067333 124.81,372.99 C124.848667,372.912667 124.906667,372.893333 124.984,372.932 L124.984,372.932 L125.042,372.874 L124.81,372.41 C124.500667,372.41 124.307333,372.294 124.23,372.062 C123.804667,372.062 123.36,372.004 122.896,371.888 C122.896,372.042667 122.838,372.12 122.722,372.12 C122.683333,372.042667 122.683333,371.984667 122.722,371.946 C122.760667,371.907333 122.78,371.868667 122.78,371.83 C122.509333,371.83 122.335333,371.888 122.258,372.004 C122.258,371.926667 122.2,371.83 122.084,371.714 C119.532,371.404667 117.830667,371.308 116.98,371.424 C116.632,371.269333 116.361333,371.25 116.168,371.366 C115.742667,371.018 115.356,371.018 115.008,371.366 L115.008,371.366 L115.356,371.366 C115.549333,371.366 115.665333,371.404667 115.704,371.482 C115.085333,371.482 114.698667,371.462667 114.544,371.424 C114.544,371.385333 114.679333,371.366 114.95,371.366 C114.872667,371.25 114.776,371.182333 114.66,371.163 C114.544,371.143667 114.379667,371.153333 114.167,371.192 C113.954333,371.230667 113.809333,371.25 113.732,371.25 C112.34,371.134 111.566667,371.134 111.412,371.25 C111.412,371.134 111.373333,371.076 111.296,371.076 C110.793333,371.385333 110.194,371.404667 109.498,371.134 C109.498,371.211333 109.459333,371.259667 109.382,371.279 C109.304667,371.298333 109.246667,371.269333 109.208,371.192 C109.362667,371.192 109.44,371.134 109.44,371.018 C109.130667,370.979333 108.802,371.095333 108.454,371.366 C108.415333,371.25 108.318667,371.211333 108.164,371.25 C108.009333,371.288667 107.951333,371.269333 107.99,371.192 C106.83,371.269333 106.095333,371.25 105.786,371.134 C105.67,371.25 105.592667,371.308 105.554,371.308 C104.780667,371.192 104.046,371.192 103.35,371.308 C103.234,371.230667 103.108333,371.211333 102.973,371.25 C102.837667,371.288667 102.731333,371.25 102.654,371.134 C102.77,371.095333 102.934333,371.085667 103.147,371.105 C103.359667,371.124333 103.504667,371.095333 103.582,371.018 C103.079333,370.940667 102.712,370.921333 102.48,370.96 C102.441333,370.96 102.402667,370.998667 102.364,371.076 C102.325333,371.153333 102.267333,371.211333 102.19,371.25 L102.19,371.25 L101.842,371.25 C101.726,370.979333 101.107333,370.873 99.986,370.931 C98.8646667,370.989 98.188,370.998667 97.956,370.96 C97.9173333,370.96 97.8303333,370.998667 97.695,371.076 C97.5596667,371.153333 97.4533333,371.230667 97.376,371.308 C97.2213333,371.153333 96.9216667,371.134 96.477,371.25 C96.0323333,371.366 95.7713333,371.404667 95.694,371.366 C95.694,371.288667 95.7423333,371.240333 95.839,371.221 C95.9356667,371.201667 95.984,371.172667 95.984,371.134 C95.9066667,371.134 95.81,371.143667 95.694,371.163 C95.578,371.182333 95.52,371.153333 95.52,371.076 C95.5973333,371.114667 95.665,371.105 95.723,371.047 C95.781,370.989 95.8293333,370.96 95.868,370.96 L95.868,370.96 L95.984,371.018 C96.0613333,371.056667 96.1,371.095333 96.1,371.134 L96.1,371.133 L96.1064444,371.082444 C96.1236296,371.022296 96.1751852,370.996519 96.2611111,371.005111 L96.332,371.018 C96.4866667,371.056667 96.5833333,371.018 96.622,370.902 C96.042,370.940667 95.2686667,370.96 94.302,370.96 L91.982,370.96 C91.982,370.844 91.9626667,370.786 91.924,370.786 C91.924,370.863333 91.9046667,370.921333 91.866,370.96 C91.75,370.844 91.634,370.786 91.518,370.786 C91.402,370.786 91.257,370.815 91.083,370.873 C90.909,370.931 90.7833333,370.96 90.706,370.96 C90.474,370.844 90.126,370.815 89.662,370.873 C89.198,370.931 88.8693333,370.921333 88.676,370.844 C87.748,370.882667 86.4333333,370.882667 84.732,370.844 C83.0306667,370.805333 81.7933333,370.805333 81.02,370.844 C80.8266667,370.766667 80.3916667,370.737667 79.715,370.757 C79.0383333,370.776333 78.5646667,370.747333 78.294,370.67 C77.9846667,370.747333 77.7236667,370.776333 77.511,370.757 C77.2983333,370.737667 76.9793333,370.708667 76.554,370.67 C76.1286667,370.631333 75.8,370.612 75.568,370.612 C75.568,370.418667 75.51,370.341333 75.394,370.38 C74.9686667,370.612 74.7366667,370.747333 74.698,370.786 C74.6593333,370.824667 74.64,370.921333 74.64,371.076 L74.64,371.076 L74.64,371.366 C74.6013333,371.404667 74.5336667,371.482 74.437,371.598 C74.3403333,371.714 74.2823333,371.801 74.263,371.859 C74.2436667,371.917 74.2533333,372.023333 74.292,372.178 C74.0986667,372.294 74.0793333,372.468 74.234,372.7 L74.234,372.7 L74.1866531,372.731071 C73.9917415,372.892643 73.9301905,373.404286 74.002,374.266 C74.0793333,375.194 74.0986667,375.793333 74.06,376.064 C74.06,376.102667 74.1373333,376.209 74.292,376.383 C74.4466667,376.557 74.4853333,376.702 74.408,376.818 C75.1426667,376.547333 75.8773333,376.605333 76.612,376.992 C76.8826667,376.876 77.2886667,376.808333 77.83,376.789 C78.3713333,376.769667 78.7193333,376.740667 78.874,376.702 C79.106,376.702 79.6956667,376.673 80.643,376.615 C81.5903333,376.557 82.1413333,376.566667 82.296,376.644 L82.296,376.644 L82.412,376.528 C82.4506667,376.450667 82.5086667,376.431333 82.586,376.47 C82.9726667,376.547333 83.398,376.528 83.862,376.412 C84.094,376.412 84.4903333,376.421667 85.051,376.441 C85.6116667,376.460333 86.0756667,376.450667 86.443,376.412 C86.8103333,376.373333 87.168,376.276667 87.516,376.122 C87.632,376.238 87.9026667,376.267 88.328,376.209 C88.7533333,376.151 89.0626667,376.160667 89.256,376.238 C89.256,376.083333 89.14,375.996333 88.908,375.977 C88.676,375.957667 88.56,375.909333 88.56,375.832 C89.14,375.832 89.5266667,375.793333 89.72,375.716 C89.6426667,375.638667 89.633,375.580667 89.691,375.542 C89.749,375.503333 89.8166667,375.503333 89.894,375.542 C89.894,375.619333 89.8746667,375.677333 89.836,375.716 C89.9133333,375.716 89.952,375.754667 89.952,375.832 C90.3773333,375.793333 90.8993333,375.783667 91.518,375.803 C92.1366667,375.822333 92.6006667,375.793333 92.91,375.716 C93.3353333,376.025333 93.6446667,376.025333 93.838,375.716 C92.4073333,375.484 91.2473333,375.484 90.358,375.716 C90.0486667,375.522667 89.894,375.406667 89.894,375.368 C89.7006667,375.368 89.3913333,375.445333 88.966,375.6 C88.5406667,375.754667 88.2506667,375.716 88.096,375.484 C88.1346667,375.445333 88.241,375.406667 88.415,375.368 C88.589,375.329333 88.6953333,375.271333 88.734,375.194 L88.734,375.194 Z M120.634,372.294 L120.66184,372.25456 C120.705147,372.211253 120.7732,372.205067 120.866,372.236 C120.75,372.042667 120.431,371.994333 119.909,372.091 C119.387,372.187667 119.087333,372.197333 119.01,372.12 C118.855333,372.158667 118.642667,372.178 118.372,372.178 C118.101333,372.178 117.85,372.216667 117.618,372.294 C117.734,372.139333 118.014333,372.042667 118.459,372.004 C118.514583,371.999167 118.567599,371.994031 118.618047,371.988594 L118.695,371.98 L118.662,371.975 C118.610444,371.962111 118.567481,371.953519 118.533111,371.949222 L118.488,371.946 C118.526667,371.83 118.623333,371.810667 118.778,371.888 C118.778,371.918933 118.771813,371.942133 118.75944,371.9576 L118.736,371.975 L118.761687,371.971375 C118.98825,371.941167 119.15062,371.903406 119.248797,371.858094 L119.3,371.83 C119.532,371.984667 119.706,371.965333 119.822,371.772 C119.860667,371.733333 119.889667,371.752667 119.909,371.83 C119.928333,371.907333 119.957333,371.946 119.996,371.946 C120.881818,371.946 121.573504,372.036595 122.071058,372.217785 L122.156,372.253 L122.0695,372.236 C121.96075,372.2215 121.827531,372.217875 121.669844,372.225125 L121.504,372.236 C121.04,372.274667 120.75,372.294 120.634,372.294 L120.634,372.294 Z M107.873,372.467 L107.899778,372.455111 L107.899778,372.455111 L108.048,372.41 C108.202667,372.371333 108.299333,372.332667 108.338,372.294 C110.116667,372.294 111.257333,372.352 111.76,372.468 C111.76,372.545333 111.711667,372.574333 111.615,372.555 C111.518333,372.535667 111.47,372.545333 111.47,372.584 C111.508667,372.622667 111.595667,372.642 111.731,372.642 C111.866333,372.642 111.934,372.7 111.934,372.816 C111.47,372.816 111.122,372.874 110.89,372.99 C111.083333,372.99 111.576333,373.019 112.369,373.077 C113.161667,373.135 113.674,373.125333 113.906,373.048 C114.138,373.164 114.495667,373.202667 114.979,373.164 C115.462333,373.125333 115.858667,373.202667 116.168,373.396 C115.394667,373.434667 114.331333,373.415333 112.978,373.338 C111.624667,373.260667 110.658,373.241333 110.078,373.28 C110.078,373.202667 110.097333,373.144667 110.136,373.106 L110.136,373.106 L109.672,373.106 C109.710667,373.067333 109.942667,372.99 110.368,372.874 C109.826667,372.680667 109.498,372.777333 109.382,373.164 L109.382,373.164 L108.28,373.164 C108.28,373.009333 108.386333,372.951333 108.599,372.99 C108.811667,373.028667 108.918,372.99 108.918,372.874 C108.802,372.835333 108.376667,372.816 107.642,372.816 C107.642,372.932 107.7,372.99 107.816,372.99 L107.816,372.99 L107.99,372.99 C107.951333,373.106 107.796667,373.125333 107.526,373.048 L107.526,373.048 L106.076,373.048 C106.192,372.970667 106.366,372.922333 106.598,372.903 C106.83,372.883667 107.004,372.893333 107.12,372.932 C107.158667,372.932 107.178,372.854667 107.178,372.7 C106.559333,372.584 105.844,372.603333 105.032,372.758 C104.954667,372.719333 104.916,372.642 104.916,372.526 C104.684,372.642 104.548667,372.7 104.51,372.7 L104.51,372.7 L104.51,372.526 L104.22,372.526 C104.104,372.642 103.881667,372.7 103.553,372.7 C103.224333,372.7 103.002,372.738667 102.886,372.816 C103.002,372.854667 103.205,372.864333 103.495,372.845 C103.785,372.825667 103.988,372.874 104.104,372.99 C104.374667,372.912667 104.568,372.864333 104.684,372.845 C104.8,372.825667 105.003,372.854667 105.293,372.932 C105.583,373.009333 105.786,373.048 105.902,373.048 C105.863333,373.125333 105.737667,373.154333 105.525,373.135 C105.312333,373.115667 105.186667,373.164 105.148,373.28 C105.109333,373.241333 105.09,373.202667 105.09,373.164 C105.09,373.125333 105.109333,373.106 105.148,373.106 C104.684,373.106 104.394,373.144667 104.278,373.222 C104.007333,373.106 103.417667,373.048 102.509,373.048 C101.600333,373.048 100.972,373.028667 100.624,372.99 C100.662667,372.912667 100.730333,372.864333 100.827,372.845 C100.923667,372.825667 101.039667,372.825667 101.175,372.845 C101.310333,372.864333 101.436,372.874 101.552,372.874 L101.552,372.874 L101.668,372.758 L101.668,372.7 C101.474667,372.7 101.146,372.690333 100.682,372.671 C100.218,372.651667 99.7926667,372.651667 99.406,372.671 C99.0193333,372.690333 98.6906667,372.777333 98.42,372.932 C98.4973333,372.970667 98.623,372.951333 98.797,372.874 C98.971,372.796667 99.1353333,372.796667 99.29,372.874 C99.1353333,373.028667 98.9516667,373.125333 98.739,373.164 C98.5263333,373.202667 98.2363333,373.212333 97.869,373.193 C97.5016667,373.173667 97.2406667,373.164 97.086,373.164 C97.086,372.932 97.3373333,372.816 97.84,372.816 C98.3426667,372.816 98.6133333,372.719333 98.652,372.526 C98.6906667,372.564667 98.7873333,372.584 98.942,372.584 L98.942,372.584 L99.232,372.584 C99.232,372.506667 99.0966667,372.468 98.826,372.468 C99.058,372.236 99.3673333,372.255333 99.754,372.526 C99.7926667,372.526 99.87,372.468 99.986,372.352 C100.759333,372.545333 102.422,372.545333 104.974,372.352 C105.051333,372.390667 105.09,372.429333 105.09,372.468 C105.051333,372.506667 105.051333,372.545333 105.09,372.584 C105.283333,372.390667 105.496,372.284333 105.728,372.265 C105.96,372.245667 106.269333,372.255333 106.656,372.294 C107.042667,372.332667 107.313333,372.352 107.468,372.352 C107.661333,372.313333 107.796667,372.352 107.874,372.468 L107.873,372.467 Z M113.269,372.631 L113.425531,372.655605 L113.425531,372.655605 L113.616,372.7 C113.654667,372.661333 113.674,372.603333 113.674,372.526 L113.674,372.526 L113.732,372.468 C113.925333,372.506667 114.186333,372.506667 114.515,372.468 C114.843667,372.429333 115.143333,372.419667 115.414,372.439 C115.684667,372.458333 115.897333,372.545333 116.052,372.7 C115.858667,372.7 115.617,372.690333 115.327,372.671 C115.037,372.651667 114.834,372.642 114.718,372.642 C115.607333,372.99 116.129333,372.951333 116.284,372.526 C118.42768,372.73016 119.643113,372.84449 119.930298,372.868989 L119.985606,372.873443 L119.985606,372.873443 L119.996,372.874 C119.918667,372.912667 119.918667,372.970667 119.996,373.048 C120.034667,373.125333 120.054,373.183333 120.054,373.222 C119.860667,373.067333 119.648,372.980333 119.416,372.961 C119.184,372.941667 118.884333,372.951333 118.517,372.99 C118.149667,373.028667 117.830667,373.048 117.56,373.048 C117.56,373.009333 117.569667,372.970667 117.589,372.932 C117.608333,372.893333 117.618,372.854667 117.618,372.816 C117.347333,372.932 117.134667,372.932 116.98,372.816 C116.941333,372.816 116.941333,372.835333 116.98,372.874 L116.98,372.874 L116.98,372.99 C116.98,373.028667 116.960667,373.067333 116.922,373.106 C116.496667,373.028667 115.704,372.99 114.544,372.99 C113.384,372.99 112.572,372.932 112.108,372.816 C112.438815,372.635556 112.816412,372.572066 113.24079,372.625531 L113.258,372.629 L113.268,372.642 L113.268,372.642 L113.269,372.631 Z M114.254,374.846 L114.298306,374.812167 C114.381546,374.763833 114.511778,374.755778 114.689,374.788 C114.901667,374.826667 115.046667,374.826667 115.124,374.788 C115.085333,374.981333 114.795333,375.02 114.254,374.904 L114.254,374.904 L114.254,374.846 L114.254,374.846 Z" id="—"></path>
        </g>
    </g>
</svg>