<?xml version="1.0" standalone="no"?>
<!DOCTYPE svg PUBLIC "-//W3C//DTD SVG 1.1//EN" "http://www.w3.org/Graphics/SVG/1.1/DTD/svg11.dtd" >
<svg xmlns="http://www.w3.org/2000/svg" xmlns:xlink="http://www.w3.org/1999/xlink" version="1.1">
<metadata>
Created by FontForge 20170731 at Sun Jun 10 09:42:32 2018
 By Aleksey,,,
</metadata>
<defs>
<font id="Bi_polarHandwriting-Regular" horiz-adv-x="270" >
  <font-face 
    font-family="Bi_polar Handwriting"
    font-weight="400"
    font-stretch="normal"
    units-per-em="1000"
    panose-1="2 0 5 3 0 0 0 0 0 0"
    ascent="800"
    descent="-200"
    x-height="351"
    cap-height="777"
    bbox="14 -200 723 800"
    underline-thickness="50"
    underline-position="-200"
    unicode-range="U+000D-2122"
  />
<missing-glyph horiz-adv-x="364" 
d="M33 0v666h265v-666h-265zM66 33h199v600h-199v-600z" />
    <glyph glyph-name=".notdef" horiz-adv-x="364" 
d="M33 0v666h265v-666h-265zM66 33h199v600h-199v-600z" />
    <glyph glyph-name=".null" 
 />
    <glyph glyph-name=".null" 
 />
    <glyph glyph-name="nonmarkingreturn" horiz-adv-x="333" 
 />
    <glyph glyph-name="CR" unicode="&#xd;" 
 />
    <glyph glyph-name="space" unicode=" " 
 />
    <glyph glyph-name="exclam" unicode="!" horiz-adv-x="163" 
d="M58 96q5 7 17 7q9 0 30.5 -14.5t25.5 -23.5q2 -6 2 -10q0 -21 -23 -31q-11 -4 -18 -4q-6 0 -17 4q-18 7 -23 19q-4 8 -4 18q0 23 10 35zM29 624q5 4 11 4q11 0 28 -18q64 -68 73 -288q2 -56 2 -63q0 -29 -7 -49q-9 -26 -17 -30q-7 -3 -21 11t-18 48q-3 23 -8 53
q-2 9 -7 66q-9 121 -22 148q-5 8 -16 45q-8 27 -8 45q0 22 10 28z" />
    <glyph glyph-name="quotedbl" unicode="&#x22;" horiz-adv-x="197" 
d="M23 598q8 5 19 5q21 0 30 -11q12 -14 12 -33q0 -13 -3 -32q-3 -15 -3 -27q0 -11 4 -33q6 -27 6 -37q0 -14 -16 -14q-34 0 -46 25q-9 16 -9 99q0 54 6 58zM119 607q5 5 18 5q24 0 34 -10q9 -9 9 -64q0 -6 -0.5 -22.5t-0.5 -27.5l-1 -62h-19q-25 0 -32 16t-10 82
q-2 44 -2 51q0 26 4 32z" />
    <glyph glyph-name="numbersign" unicode="#" horiz-adv-x="492" 
d="M317 403q3 23 -8 23q-13 0 -20 -6q-6 -4 -14.5 -28.5t-8.5 -35.5q0 -3 1 -4q3 -3 21 1q15 3 20 12t9 38zM372 674q10 10 16 10t17 -8q17 -12 17 -30q0 -10 -4 -22q-6 -18 -14 -58l-7 -35l17 -16q16 -16 20 -34q1 -4 1 -10q0 -9 -12 -21q-13 -13 -22 -13q-1 0 -3 0.5
t-3 0.5q-3 1 -8 1q-6 0 -11 -30q-1 -4 -1.5 -7.5t-1.5 -7.5l-3 -20l19 3q21 4 28 11t18 7q12 0 24 -12q13 -13 13 -32q0 -16 -8.5 -28t-22.5 -12q-5 0 -7 1q-3 1 -11 1q-41 0 -61 -12q-6 -4 -18.5 -68.5t-12.5 -90.5q0 -22 -12 -37l-13 -14l-23 19q-23 19 -23 32q0 8 6 18
q5 11 15.5 56.5t10.5 59.5v2l-1 1q-3 5 -23 1l-21 -3l-11 -45q-10 -40 -10 -59q0 -2 0.5 -5.5t0.5 -4.5q1 -6 1 -14q0 -11 -10 -20l-13 -12l-23 16q-23 16 -23 31q0 14 5 17t5 13q0 14 8 36q9 24 5 28q-1 2 -9 1.5t-16 -3.5q-73 -21 -106 -21h-4q-6 3 -19 27q-9 18 -9 27
q0 3 2 13q3 10 5.5 12.5t10.5 2.5q9 0 16 -1h3q26 0 83 7.5t62 11.5q4 4 10 27t6 31q0 2 -1 2q-7 0 -38 -7.5t-37 -11.5q-29 -18 -70 -18q-13 0 -16 4q-5 7 -11 28t-6 33q0 11 8 14.5t36 4.5q26 0 92 17q47 12 55.5 16t9.5 15q2 14 9 48.5t9 48.5q6 41 26 41q11 0 24 -10
t13 -26q0 -13 -8 -51q-6 -24 -6 -38q0 -4 1 -5q3 -3 16 3q8 4 10.5 11.5t7.5 38.5q14 106 31 123z" />
    <glyph glyph-name="dollar" unicode="$" horiz-adv-x="375" 
d="M281 328q-14 7 -18 7q-7 0 -10 -18q-6 -32 -8 -40q-8 -37 -8 -44q0 -9 6 -9q10 0 32.5 12t28.5 20q8 13 8 25q0 31 -31 47zM220 431q0 19 -5 19q-3 0 -14 -12q-10 -13 -10 -17t7 -10q7 -5 10 -5q12 0 12 25zM264 671q3 20 7.5 28t15.5 8t34 -9q10 -3 10 -13
q0 -13 -17 -81l-13 -52l21 -20q19 -18 19 -33q0 -9 -9 -11q-2 0 -12 -1.5t-15 -2.5l-18 -3l-10 -44q-11 -46 -11 -48t15 -11q19 -10 40.5 -35t28.5 -45q5 -17 5 -31q0 -27 -14 -50t-38 -32q-1 -1 -18.5 -7t-28.5 -10l-33 -12l-6 -30q-16 -86 -16 -110q0 -9 1 -13t1 -12
q0 -31 -14 -40q-8 -5 -18 -5q-15 0 -27.5 8.5t-12.5 19.5q0 3 1 5q3 10 11.5 64t10.5 62q3 12 3 18q0 10 -7 10q-6 0 -19 -9q-14 -9 -38 -18t-28 -16q-3 -7 -12 -7q-13 0 -24 13q-10 13 -10 26q0 11 6.5 18.5t17.5 7.5q12 0 52 15t70 30q9 5 25 86q2 11 5 25.5t5 23.5t3 12
q2 8 -0.5 12t-13.5 8q-18 7 -39 28q-20 21 -20 42q0 20 20 43t54 41l36 18l10 57q9 45 14 82z" />
    <glyph glyph-name="percent" unicode="%" horiz-adv-x="448" 
d="M358 217l14 12h-13q-13 0 -19 -9q-3 -6 -3 -9t4 -3q5 0 17 9zM306 279q15 16 35 16q17 0 39.5 -13t35.5 -30q11 -14 11 -37q0 -22 -10 -35q-12 -17 -38 -28.5t-48 -11.5q-14 0 -21 4q-12 7 -24 30t-12 39q0 32 32 66zM97 588q0 5 -2 5q-3 0 -6 -6q-1 -4 3 -4q5 0 5 5z
M74 649q15 6 29 6q27 0 47 -18.5t20 -43.5q0 -10 -2 -16q-9 -28 -35.5 -47.5t-54.5 -19.5q-13 0 -22 4q-37 14 -37 53q0 24 15.5 47.5t39.5 34.5zM347 702q9 12 22 12q12 0 25 -11q11 -11 11 -17q0 -7 -14 -29q-10 -15 -53 -96.5t-49 -91.5q-11 -19 -59 -121
q-7 -14 -60.5 -125t-73.5 -155q-19 -41 -37 -41q-10 0 -24 14q-13 14 -13 35q0 37 30 48q12 5 81 148q38 81 62 126q13 26 13 28q0 7 62 130t77 146z" />
    <glyph glyph-name="ampersand" unicode="&#x26;" horiz-adv-x="549" 
d="M215 296q-9 6 -38 28q-12 8 -13 8q-7 0 -29 -49q-5 -12 -8 -18q-46 -104 -46 -136q0 -11 6 -14q2 -1 6 -1q14 0 39 9.5t44 22.5q27 18 29 18q1 0 18 13q64 52 70 52q4 0 4 4t-82 63zM166 584q-5 13 -8 13t-7 -12q-21 -54 -21 -117q0 -21 5 -24h1q5 0 19 35q16 38 16 72
q0 22 -5 33zM130 613q0 -7 4 -3.5t0 7.5q-3 0 -4 -4zM117 653q10 10 24 10q20 0 46 -17q34 -22 45 -84q3 -16 3 -30q0 -32 -32 -103l-23 -50l16 -13q27 -21 81.5 -58t59.5 -38q7 0 47 32.5t69 61.5q30 32 35 32q3 0 23 -16q18 -14 18 -32t-13 -25t-64 -45.5t-53 -43.5
q-1 -2 5.5 -7.5t15.5 -12.5q23 -16 23 -26q0 -5 -8 -15q-7 -9 -18 -9q-12 0 -32 14q-18 13 -28 17h-2q-12 0 -65 -46q-7 -7 -33 -25q-94 -69 -149 -69q-16 0 -36 5q-28 8 -40.5 21t-12.5 38q0 30 16 78q14 46 51 126q21 44 21 60q0 14 -13 46q-14 32 -14 72q0 44 11 90
t26 62z" />
    <glyph glyph-name="quotesingle" unicode="'" horiz-adv-x="138" 
d="M49 594q13 2 15 3h1q5 0 13 -9.5t13 -21.5q6 -14 6 -59q0 -34 6.5 -75t11.5 -41q4 0 4 -15q0 -13 -10 -21t-24 -8q-19 0 -36 14q-13 11 -22.5 53.5t-9.5 86.5q0 18 4 44q9 45 28 49z" />
    <glyph glyph-name="parenleft" unicode="(" horiz-adv-x="190" 
d="M122 647q6 5 15 5q14 0 26 -18q8 -11 8 -22q0 -15 -29 -74q-25 -49 -43 -94q-29 -78 -29 -176q0 -39 6 -66q17 -67 71 -158q17 -27 17 -45q0 -10 -6 -19q-4 -7 -11 -7q-13 0 -33 28q-20 29 -46 83t-35 85q-14 45 -14 109q0 129 55 262q19 45 30 75q9 25 18 32z" />
    <glyph glyph-name="parenright" unicode=")" horiz-adv-x="248" 
d="M25 713q9 6 16 6q12 0 27 -16q68 -73 120 -216q40 -108 40 -197q0 -112 -66 -215q-23 -36 -54.5 -69.5t-42.5 -33.5q-10 0 -20.5 9.5t-10.5 17.5q0 3 1 4q3 7 25 32q88 105 108 198q6 27 6 64q0 89 -26 165q-15 46 -43 98.5t-50 74.5q-36 38 -36 64q0 9 6 14z" />
    <glyph glyph-name="asterisk" unicode="*" horiz-adv-x="230" 
d="M148 603q8 5 16 5q12 0 28 -14q11 -12 11 -23q0 -8 -1 -15q-4 -25 1 -30q4 -6 8 -41q2 -20 2 -22q0 -13 -9 -22t-18 -9q-10 0 -26 10q-17 10 -18 9l-12 -26q-10 -24 -24 -24q-16 0 -28 34q-4 10 -7 12.5t-13 0.5q-2 -1 -7 -1q-7 0 -20 16t-13 29q0 11 10 22q10 12 10 27
q0 13 7.5 21t18.5 8q14 0 27 -12q11 -11 15 -11q5 1 19 19.5t14 24.5q0 7 9 12z" />
    <glyph glyph-name="plus" unicode="+" horiz-adv-x="316" 
d="M148 503q4 2 8 2q14 0 28 -14q10 -10 13 -46l2 -36l17 -2q17 -2 23 4q5 5 11 5q10 0 27 -15q21 -18 21 -43q0 -26 -24 -37q-13 -6 -25 2q-12 7 -30 7q-13 0 -15 -2t0 -14q1 -4 6 -45q1 -8 1 -18q0 -12 -9 -21t-19 -9l-26 18q-11 16 -11 36q0 2 0.5 7.5t0.5 9.5l2 36
l-54 1l-54 2l-12 16q-11 15 -11 36q1 30 24 30q5 0 17 -2q28 -4 56 -4l33 -1l-4 27q-3 21 -3 39q0 27 7 31z" />
    <glyph glyph-name="comma" unicode="," horiz-adv-x="153" 
d="M75 165q6 14 22 14q15 0 27 -13q14 -14 14 -32q0 -21 -19 -43q-18 -19 -36 -58q-20 -42 -22 -46q-5 -9 -14 -9q-11 0 -21.5 12t-10.5 28q0 45 34 102q15 24 26 45z" />
    <glyph glyph-name="hyphen" unicode="-" horiz-adv-x="221" 
d="M16 292q0 2 -0.5 5t-0.5 4q0 37 36 37q1 0 4 -0.5t5 -0.5q3 0 18.5 -1.5t24.5 -2.5q57 -6 88 -16q7 -2 1 -5q-5 -2 5 -11q8 -6 8 -14q0 -11 -19 -21q-9 -4 -67.5 -8t-66.5 -6q-3 -1 -8 -1q-23 0 -28 41z" />
    <glyph glyph-name="period" unicode="." horiz-adv-x="98" 
d="M24 241q4 8 15 8q14 0 26 -11q13 -11 16 -33q0 -2 0.5 -5.5t0.5 -4.5q0 -11 -13 -27l-14 -16l-16 10q-24 14 -24 44q0 17 9 35z" />
    <glyph glyph-name="slash" unicode="/" horiz-adv-x="402" 
d="M336 684q8 5 14 5q5 0 18.5 -15.5t13.5 -21.5q0 -5 -29.5 -59.5t-41.5 -71.5q-10 -13 -10 -19q0 -11 -57 -107q-90 -149 -117.5 -202t-27.5 -74q0 -16 -13 -26t-20 -10q-6 0 -23 11q-24 16 -24 36q0 5 4 13q59 117 79 147q12 16 19 30q9 17 34 56q62 99 99 172
q64 125 82 136z" />
    <glyph glyph-name="zero" unicode="0" horiz-adv-x="417" 
d="M98 522l-3 -4q-1 0 -1 4q0 11 4.5 31t8.5 20q1 -1 1 -3q0 -28 -10 -48zM285 717q-12 8 -43 8q-52 0 -70 -16q-9 -8 -33.5 -51t-24.5 -50q0 -6 -8 -12q-5 -4 -9.5 -21.5t-7.5 -34.5t-6 -39.5t-4 -26.5q-3 -18 -3 -38q0 -13 6 -88q3 -36 3 -40q3 -18 17.5 -50.5t23.5 -39.5
q11 -9 6 -9q-3 0 11 -18q18 -20 29 -39q22 -37 50 -37q32 0 62 45q32 46 57 196q9 52 9 131q0 39 -3 58q-5 32 -9 53q-5 33 -22.5 72t-30.5 47zM183 767q10 2 18.5 3.5t14 2.5t14.5 1q15 0 26 -1q27 -2 37 -4.5t26 -14.5q24 -17 34 -29q8 -8 20 -53t19 -94q6 -44 6 -124
q0 -138 -12 -160q-1 -2 -1 -20q0 -15 -11.5 -56t-23.5 -68q-5 -12 -25.5 -32t-41.5 -35q-29 -20 -58 -20q-70 0 -143 115q-64 101 -64 238q0 76 20 174q14 65 22 82t27 17q11 0 21 19q12 23 33 39.5t42 19.5z" />
    <glyph glyph-name="one" unicode="1" horiz-adv-x="306" 
d="M96 786q3 10 7 12t21 2t22 -2.5t12 -12.5q20 -33 24 -326q4 -176 8 -206l6 -40l26 3q16 2 18 2q10 0 27 -14q18 -17 18 -33q0 -30 -46 -35q-57 -6 -107 -6q-28 0 -36 3q-27 11 -27 45q0 20 12 33q11 12 19 12q6 0 10 -1l17 -4l-2 111q-6 326 -16 336l-1 1q-7 0 -29 -54
q-6 -17 -26 -17q-11 0 -21 7t-13 18l-1 2v3q0 24 50 107q24 38 28 54z" />
    <glyph glyph-name="two" unicode="2" horiz-adv-x="547" 
d="M348 780q35 7 75 7h13q33 -1 45 -6.5t32 -28.5q13 -14 13 -39q0 -41 -39 -98q-33 -49 -62.5 -82.5t-125.5 -131.5q-185 -187 -185 -199q0 -2 8 -2q16 0 42 5q116 18 230 26q9 1 21 1q15 0 31 -16q14 -14 14 -23q0 -4 -1 -6q-7 -22 -24 -22q-3 0 -19 2q-6 1 -23 1
q-54 0 -158 -17q-147 -23 -160 -33q-5 -4 -19 -7q-13 -3 -26 11q-12 14 -12 28q0 18 27 59q16 24 38.5 48.5t130.5 133.5q120 120 175 185.5t75 113.5q8 19 8 24q0 7 -9 8.5t-38 1.5q-52 0 -96 -14q-45 -13 -66 -26q-18 -10 -25 -10q-9 0 -19 10t-10 30q0 18 9 26
q21 19 130 40z" />
    <glyph glyph-name="three" unicode="3" horiz-adv-x="396" 
d="M28 725q9 12 32 12q3 0 13 -0.5t17 -0.5q169 -6 199 -17q42 -18 52 -47q3 -8 3 -15q0 -8 -8 -32q-7 -19 -20 -34.5t-56 -58.5l-64 -64l24 -3q8 -1 28 -2t22 -1q46 -1 76 -32t30 -73q0 -22 -9 -43q-14 -32 -75.5 -104t-74.5 -72q-11 0 -22.5 16t-13.5 34q0 2 -0.5 5
t-0.5 4q0 12 12 24q13 13 19 13q12 0 49 45.5t49 74.5q4 8 4 17q0 19 -16 21q-20 2 -30 2q-28 0 -92 -7l-77 -7l-15 14q-14 14 -14 33q0 16 16 35.5t62 57.5q68 56 101 96q25 31 25 35q0 5 -10 8q-12 5 -84 5q-73 0 -91 -5q-18 -4 -19 -4q-8 0 -22 10q-28 18 -28 38
q0 10 9 22z" />
    <glyph glyph-name="four" unicode="4" horiz-adv-x="364" 
d="M232 720q8 9 14 9q8 0 22 -10q16 -10 20.5 -20t4.5 -35q0 -44 6.5 -170.5t10.5 -153.5q2 -14 7 -56.5t10.5 -77t10.5 -53.5q6 -24 6 -31q0 -8 -6 -20q-11 -22 -26 -22q-14 0 -29 17q-8 8 -14 65q-9 90 -15 133q-10 72 -10 99q0 51 -13 56h-2q-13 0 -54.5 -16t-53.5 -26
q-16 -13 -28 -10q-14 3 -25 17.5t-11 28.5q0 18 -5 43q-2 10 -14 84t-17 94q-2 16 -2 21q0 38 23 38q13 0 28 -15q11 -10 14 -17.5t3 -23.5q0 -23 10.5 -90.5t15.5 -73.5q3 -4 14 -4q15 0 29 7q1 1 9 4t17.5 7t19 9t16 9t6.5 6q0 5 7 5q6 0 6 16q0 19 -9 78q-5 32 -5 46
q0 24 9 33z" />
    <glyph glyph-name="five" unicode="5" horiz-adv-x="591" 
d="M508 722q21 12 26 12q7 0 20 -21.5t16 -37.5q1 -3 1 -8q0 -27 -24 -27q-4 0 -12 2q-7 3 -21 3q-19 0 -91 -9q-42 -5 -188 -30q-38 -7 -57 -15q-13 -8 -23 -8q-6 0 -17 -5.5t-23 -13.5t-15 -9q-17 -8 -18 -99v-19q0 -26 9 -31q10 -5 19 -5q15 0 54 -22.5t59 -42.5
q32 -32 42.5 -55t10.5 -62v-7q0 -54 -36 -105q-11 -14 -39.5 -38.5t-38.5 -26.5q-1 0 -3 -0.5t-3 -0.5q-20 0 -32 29q-5 15 -5 24q0 25 36 41q28 13 45.5 41.5t17.5 58.5q0 7 -2 19q-5 24 -47.5 48t-79.5 24h-4h-3q-19 0 -35 8.5t-16 19.5t-3 14q-4 4 -4 103q-2 102 -4 107
v1q-1 1 -1 2q0 8 23 34q25 27 45 31q19 3 25 13q5 8 26 17q14 6 19 6t11 -6q7 -6 22 -6q11 0 19 1q13 1 52 5q88 7 115 16q20 6 31 6q1 0 3 -0.5t3 -0.5q13 -4 19 2q5 4 31 8q22 2 45 15z" />
    <glyph glyph-name="six" unicode="6" horiz-adv-x="383" 
d="M296 282q-16 10 -68 10q-40 0 -76.5 -6.5t-41.5 -15.5q-5 -8 -5 -22q0 -11 -8 -19q-7 -6 -7 -8q0 -5 17 -16q39 -26 99 -26q30 0 49 9q22 10 37 31.5t15 40.5q0 14 -11 22zM236 633q15 14 31 14q13 0 23 -10q12 -11 12 -33q0 -18 -8.5 -32t-22.5 -14q-9 0 -40 -20.5
t-54 -42.5q-43 -40 -73 -112q-9 -21 -9 -31q0 -6 3 -6q2 0 6 2q25 14 125 14q59 0 78 -8q25 -10 40 -40.5t15 -67.5q0 -40 -18 -70q-44 -72 -138 -72q-3 0 -9 0.5t-9 0.5q-63 5 -96 29q-73 53 -73 160q0 49 31 125.5t66 115.5q19 22 55.5 52.5t42.5 30.5q3 0 22 15z" />
    <glyph glyph-name="seven" unicode="7" horiz-adv-x="411" 
d="M37 601q13 7 23 4q6 -2 53 -4q29 -1 86.5 -5.5t100.5 -5.5q52 -2 62 -4t18 -11q11 -12 11 -34q0 -14 -6 -23t-35 -35q-64 -59 -126 -180q-61 -116 -61 -145q0 -16 -10.5 -30.5t-21.5 -14.5q-12 0 -20 15t-8 38q0 21 25 77q76 165 141 253q13 16 9 20q-8 8 -103 8
q-97 0 -106 -8q-5 -3 -9 -3q-19 0 -29 21q-12 24 -12 38q0 18 18 29z" />
    <glyph glyph-name="eight" unicode="8" horiz-adv-x="321" 
d="M207 345q-10 5 -18 5q-13 0 -47 -17q-30 -15 -45.5 -34.5t-22.5 -52.5q-4 -15 -4 -24q0 -11 8 -26q13 -26 31 -26q4 0 20 4q34 9 65.5 50.5t31.5 78.5q0 21 -3.5 28t-15.5 14zM223 618q-13 5 -24 5q-25 0 -41 -19q-11 -11 -15 -11q-8 0 -22.5 -18.5t-26.5 -42.5
q-29 -60 -29 -99q0 -7 2 -15q6 -25 22 -25q10 0 36 8q25 8 37 15t31 27q27 28 45 61.5t18 55.5q0 19 -9.5 36t-23.5 22zM140 670q14 5 34 5q57 0 88 -36q39 -44 39 -108q0 -20 -6 -35q-2 -4 -5.5 -13t-4.5 -11.5t-4 -8.5t-6 -10t-8 -11t-12 -17l-28 -38l12 -11
q35 -32 35 -95q0 -35 -13 -62q-21 -45 -59.5 -75t-76.5 -30q-36 0 -61 28q-41 46 -41 105q0 37 16 70l15 34l-18 32q-17 29 -17 53q0 3 0.5 11.5t0.5 15.5q1 46 15 82q17 48 19 56q6 20 35 40q23 17 51 29z" />
    <glyph glyph-name="nine" unicode="9" horiz-adv-x="337" 
d="M215 612q-13 10 -48 10q-27 0 -40 -7q-21 -12 -28 -22.5t-7 -35.5q0 -15 1 -24q5 -84 36 -84q8 0 28 16.5t20 23.5q0 3 23 43q23 38 23 60q0 14 -8 20zM96 686q17 5 62 5h4q78 0 110 -51q17 -25 25 -32q20 -18 20 -45q0 -17 -6 -39q-7 -24 -15.5 -96t-17 -154.5
t-10.5 -100.5q-5 -43 -5 -115v-25q0 -9 0.5 -22t0.5 -18q0 -45 -11 -52q-8 -6 -20 -6q-28 0 -44 21q-12 15 -12 40q0 4 2 46q9 144 28 308l4 36l-19 -6q-20 -6 -49 -6q-32 0 -53 19q-31 26 -51 79t-20 109q0 82 77 105z" />
    <glyph glyph-name="colon" unicode=":" horiz-adv-x="177" 
d="M26 195q8 8 24 8h12q16 -1 21 -2.5t9 -5.5t10 -16q11 -20 11 -29q0 -6 -18 -26.5t-23 -20.5q-13 0 -33.5 24.5t-20.5 46.5q0 11 8 21zM98 463q9 11 25 13h1q14 0 24 -13t10 -29q0 -18 -11 -30t-15 -12q-1 0 -13 4q-16 7 -16 15t-7 15q-7 6 -7 15q0 10 9 22z" />
    <glyph glyph-name="semicolon" unicode=";" horiz-adv-x="161" 
d="M78 216q6 14 23 14t28 -14t11 -30q0 -22 -19 -44q-15 -17 -57 -105q-4 -9 -14 -9t-20 10q-12 12 -12 34q0 40 35 99q17 28 25 45zM78 533q3 1 9 1q22 0 38.5 -16.5t16.5 -36.5q0 -10 -4 -18q-10 -22 -32 -22q-6 0 -11 3q-8 5 -23 31q-11 19 -11 29q0 4 3 12q5 15 14 17z
" />
    <glyph glyph-name="less" unicode="&#x3c;" horiz-adv-x="258" 
d="M160 528q9 9 20 9q16 0 30 -16q18 -21 18 -32q0 -9 -5 -18q-8 -16 -50 -39q-55 -28 -55 -37q0 -6 26 -29q31 -29 47 -33q14 -3 14 -8t7 -5q8 0 15.5 -13t10.5 -31q1 -5 1 -13q0 -11 -9 -24q-12 -16 -28 -16q-17 0 -26 15q-12 18 -58.5 62t-65.5 54q-20 12 -27 24t-7 34
q0 27 13 43.5t35 16.5q10 0 45 21t49 35z" />
    <glyph glyph-name="equal" unicode="=" horiz-adv-x="521" 
d="M447 366q7 7 12 7q9 0 22 -15q18 -20 18 -51q0 -15 -7 -27q-10 -15 -29 -15q-11 0 -19 5q-11 8 -87 8q-111 -1 -225 -17q-65 -9 -81 -9h-4l-2 1q-19 9 -26 47q-1 5 -1 12q0 11 8 20q7 8 17.5 10t51.5 4q18 1 104 4q9 1 25 1q22 0 23 -3q3 -4 20 2q19 8 95 8q78 1 85 8z
M440 475q15 4 26 4q12 0 24 -9q9 -7 11 -14t2 -29q0 -21 -2 -28t-10 -12q-13 -8 -28 -8q-10 0 -10 5q0 4 -34 4q-141 0 -295 -25q-56 -8 -63 -8q-1 0 -3 1h-2q-16 6 -25 42q-1 3 -1 10q0 15 8 26t19 11q18 0 71 5q106 9 145 9q24 0 40 -4q11 -3 17 -3q8 0 24 8q22 11 46 11
q34 2 40 4z" />
    <glyph glyph-name="greater" unicode="&#x3e;" horiz-adv-x="266" 
d="M25 482q10 13 17 13q10 0 31 -18q23 -20 85 -41q59 -20 73.5 -31.5t14.5 -38.5q0 -41 -32 -55q-17 -8 -65 -48t-49 -53q-2 -13 -16 -24q-10 -9 -22 -9q-16 0 -26.5 16t-10.5 37q0 17 9 35q13 22 19 22q8 0 43 31.5t35 38.5q0 2 -45 21q-42 16 -53 26.5t-14 36.5
q-1 6 -1 16q0 15 7 25z" />
    <glyph glyph-name="question" unicode="?" horiz-adv-x="387" 
d="M150 -73q-11 16 -11 33q0 15 7.5 25t20.5 10h6q16 -4 34.5 -18t21.5 -24q1 -3 1 -10q0 -16 -12.5 -25.5t-29.5 -9.5q-23 0 -38 19zM212 608q5 5 42 5q29 0 43 -4q7 -3 16 -10t19 -15.5t14 -11.5q21 -15 21 -60q0 -17 -4 -26q-1 -3 -6.5 -18t-9.5 -24q-10 -28 -24 -46
q-11 -14 -11 -18q0 -2 -35 -63q-55 -98 -55 -160q0 -11 1 -16q2 -18 2 -20q0 -11 -9 -22q-10 -12 -36 -12q-18 0 -26 7q-18 15 -18 57q0 48 23.5 117t63.5 131q48 75 56 117q3 13 1.5 15t-12.5 0q-46 -8 -93.5 -28.5t-73.5 -42.5q-25 -22 -43 -22q-10 0 -17 7q-22 25 -22 35
q0 9 9 24q22 40 82 69q32 13 63 22q35 9 39 13z" />
    <glyph glyph-name="at" unicode="@" horiz-adv-x="631" 
d="M332 274q13 13 12 19q-1 3 -2 4t-3.5 0t-6.5 -3.5t-11 -7.5q-22 -15 -22 -20t6 -5q12 0 27 13zM327 569q10 2 22 2q29 0 139 -11q25 -1 61.5 -38.5t50.5 -76.5q10 -29 10 -67q0 -52 -19 -104t-51 -84q-21 -20 -60 -41t-61 -23h-7q-36 0 -58 39q-11 19 -18 19q-1 0 -7 -2
q-11 -3 -25 -3q-30 0 -44 9q-28 18 -35 62q-1 4 -1 11q0 37 53 86q58 52 90 52q17 0 38 -13q28 -18 28 -44q0 -20 -10 -51q-13 -47 -20 -59q-6 -9 -5 -15t9 -6q7 0 46 16q25 10 36.5 18.5t27.5 28.5q41 52 41 108q0 38 -23 68t-62 43q-30 10 -85 10q-67 0 -127 -15
q-110 -28 -147.5 -57.5t-37.5 -90.5q0 -99 70 -162q39 -34 84 -49q21 -7 37 -19.5t17 -22.5q0 -3 -11 -16q-12 -13 -36 -13q-29 0 -62 18q-32 18 -68 53.5t-51 64.5q-37 71 -37 167q0 33 6 55q16 57 74 88.5t192 56.5q6 1 14 3t13.5 3.5t8.5 1.5z" />
    <glyph glyph-name="A" unicode="A" horiz-adv-x="499" 
d="M232 512q0 6 -15 35.5t-22 29.5q-3 0 -4 -7q0 -2 -1.5 -11.5t-4 -26.5t-5.5 -32q-13 -76 -17 -109q-1 -9 -3 -24.5t-3 -26.5t-2 -17l-4 -22l42 3q23 2 71 5q22 1 26.5 4.5t4.5 19.5q0 24 -21 71q-5 10 -16 45q-10 31 -19 45q-7 10 -7 18zM135 708q6 12 12 14.5t30 2.5h33
l18 -25q18 -26 48 -81q42 -80 58 -118q15 -40 21 -49q3 -5 7 -24q2 -12 17 -57.5t17 -55.5q39 -156 81 -257q4 -8 4 -15t-7 -20q-8 -14 -22.5 -24.5t-26.5 -10.5q-8 0 -22.5 13.5t-18.5 25.5q-4 9 -9 9t-5 16q0 25 -16 71q-6 14 -22 81q-6 22 -15 22q-3 0 -19 -7
q-16 -8 -28 -8q-13 0 -21 -5q-7 -4 -51 -8q-50 -4 -58.5 -10t-13.5 -45q-4 -24 -4 -62v-15q0 -4 0.5 -9t0.5 -7q0 -16 -17 -33q-17 -18 -23 -18q-3 0 -19 7q-18 9 -26 21t-15 39q-6 24 -6 32q0 7 5 20q9 23 14 62q5 43 11 52q5 8 5 24q0 11 13 77.5t19 86.5q4 13 10 72
t19.5 129.5t21.5 86.5z" />
    <glyph glyph-name="B" unicode="B" horiz-adv-x="539" 
d="M295 612q-53 15 -106 19l-47 4l3 -17q3 -10 8 -35q25 -104 31 -117q5 -8 5 -21q0 -22 16 -22q7 0 12 1q51 9 140 53.5t89 60.5q0 14 -45.5 36t-105.5 38zM76 717q9 6 11 6q1 0 19 -9q18 -10 31 -10q3 0 122 -17q34 -4 87.5 -20t84.5 -32q28 -14 54.5 -39t31.5 -41
q4 -11 4 -23q0 -39 -48 -76q-21 -16 -64.5 -39.5t-66.5 -30.5q-86 -29 -86 -34t30 -22q51 -27 98 -63.5t69 -67.5q35 -47 43.5 -65t15.5 -64q3 -15 3 -26q0 -14 -6 -33q-10 -34 -37.5 -70t-57.5 -54q-50 -29 -62 -29q-3 0 -33 14q-16 6 -16 27q0 14 8 33q5 11 13 16.5
t33 15.5q18 7 41 26t31 33q7 14 7 43t-17 59q-43 77 -161 136q-26 12 -31 12h-1q-3 -1 3 -29q2 -10 15 -115q13 -123 13 -130t-3 -7t-7 -10q-4 -13 -29 -13q-8 0 -11 3q-4 4 -11 2q-6 -3 -17 11q-10 14 -10 47q-1 73 -15 177t-27 130q-8 18 -8 28q0 1 0.5 3.5t0.5 3.5
q1 3 1 11q0 24 -18 84q-3 10 -8.5 32l-6.5 26q-9 34 -10 36q-2 4 -6 21.5t-9 33.5t-9 18q-14 8 -25.5 22t-11.5 23q0 11 10.5 19.5t24.5 8.5q12 0 24 8z" />
    <glyph glyph-name="C" unicode="C" horiz-adv-x="366" 
d="M44 520q0 4 10.5 25.5t10.5 25.5q0 6 7 13q4 5 42 59t43 60q10 11 25 11q20 0 37 -16q17 -14 17 -29t-22 -40q-22 -24 -38 -54q-13 -24 -20 -35q-5 -7 -20.5 -47t-20.5 -61q-5 -22 -5 -37q0 -65 60 -131q18 -20 29 -27.5t33 -14.5q12 -4 40 -11q38 -3 62 -13
q14 -5 14 -22q0 -10 -3.5 -15t-15.5 -11q-19 -10 -41 -14q-6 -1 -19 -1q-37 0 -80.5 16t-69.5 40q-19 17 -30 21q-9 4 -9 8q0 6 -12 21q-22 28 -36.5 69.5t-14.5 76.5v9q3 69 18 97q9 17 9 27z" />
    <glyph glyph-name="D" unicode="D" horiz-adv-x="624" 
d="M436 359q0 3 10 14t10 14t12 21q14 19 26.5 44.5t12.5 35.5q0 32 -56.5 70.5t-126.5 52.5q-17 4 -69 10l-32 3l3 -13q5 -17 17 -37q10 -17 33 -69.5t24 -55.5q8 -20 22 -67t23 -69q8 -24 10 -32q8 -25 13 -25q3 0 3 9q0 24 40 63q25 25 25 31zM107 718q10 2 22 2
q43 0 119.5 -10t122.5 -22q79 -20 146.5 -68t84.5 -109q4 -12 4 -33q0 -36 -9 -52q-7 -12 -20.5 -43.5t-13.5 -34.5q0 -4 -23 -29q-23 -27 -23 -32q0 -6 -8 -12q-8 -8 -14 -22q-9 -20 -27.5 -35t-37.5 -17q-5 -1 -13 -1q-12 0 -28 16q-14 14 -17 14q-1 0 -1 -2t5 -19
q3 -10 3 -17q0 -17 -22 -26q-17 -7 -31 -7q-26 0 -43.5 31t-38.5 109q-9 31 -20.5 68.5t-19.5 63.5q-17 55 -23 61q-5 5 -15 33q-12 28 -30 59l-20 34h-36q-35 0 -42 10t-13 10q-8 0 -8 17q0 13 5 26.5t11 17.5q10 6 74 19z" />
    <glyph glyph-name="E" unicode="E" horiz-adv-x="561" 
d="M301 582q-7 0 -33.5 -12t-34.5 -12q-14 0 -17 -5q-2 -3 -21 -9t-19 -12q0 -12 9 -59q8 -35 15 -81q4 -28 19 -28q9 0 25 6q25 7 80 16.5t66 11.5q35 5 48 5q22 0 47 -12q18 -9 18 -15q0 -4 -8 -7q-7 -3 -11 -13q-2 -9 -22.5 -22.5t-30.5 -13.5q-9 0 -19 -5
q-28 -16 -85 -38q-2 -1 -29.5 -11.5t-48 -20.5t-23.5 -17v-2q-1 -1 -1 -2q0 -12 9.5 -38t18.5 -35q9 -11 42 -11q17 0 17 5q0 7 136 36q38 8 58 8q37 0 37 -28q0 -7 -1 -11q-4 -19 -24.5 -36.5t-72.5 -45.5q-34 -18 -46 -21q-119 -38 -143 -38q-11 0 -17 1q-30 3 -58 25
q-17 13 -25 25t-21 43q-35 88 -46 232q-3 37 -15 96q-7 37 -12 48.5t-19 23.5q-26 21 -26 54q0 21 12 48q13 29 26 37t49 8h26h21q23 0 32 2t20.5 7t30.5 9q31 7 46 14t78 16q56 9 88 9q56 0 56 -28q0 -15 -21 -33t-48 -26q-69 -18 -82 -21q-3 0 -21 -9q-14 -8 -29 -8z" />
    <glyph glyph-name="F" unicode="F" horiz-adv-x="541" 
d="M34 681q12 13 36 13q37 -1 58 -40q11 -21 18 -28t17 -7t17 2q20 4 41 12t46 14q40 10 56 18q42 22 119 27q13 1 30 1q21 0 32 -10q18 -12 18 -26q0 -11 -12 -24.5t-23 -13.5q-12 0 -19 -9t-14 -9q-5 0 -41 -15q-53 -23 -81 -32q-21 -5 -29 -10q-5 -3 -49 -18
q-43 -14 -49 -24q-2 -2 -2 -10q0 -12 12 -49q14 -41 22 -52.5t24 -11.5q9 0 15 1q27 2 36 11q9 7 46 18.5t53 11.5q15 0 19 6q2 3 7 3q11 0 28 -8t21 -16q4 -7 4 -13q0 -7 -8 -16q-17 -25 -54 -40q-7 -3 -20 -10.5t-21 -10.5q-35 -15 -86 -43l-31 -17l5 -52q5 -70 5 -121
v-69l-20 -17q-16 -15 -26 -15q-4 0 -6 1q-33 11 -44 46q-6 18 -17.5 86t-11.5 83q0 16 -27 40l-27 25l4 32q4 32 10 36q5 4 5 17q0 30 -21 77q-8 16 -8 22q0 2 -17 27q-13 20 -26 59t-19 51q-11 23 -11 50q0 30 16 47z" />
    <glyph glyph-name="G" unicode="G" horiz-adv-x="542" 
d="M218 687q12 6 26 6q18 0 26 -7q9 -7 19 -7q9 0 6 -8t2 -15q4 -4 4 -10q0 -18 -42 -60q-19 -19 -27.5 -29.5t-20.5 -28t-20 -29.5q-70 -94 -70 -180q0 -41 16 -76q8 -18 13.5 -23.5t15.5 -7.5q16 -4 77 -4q45 0 67 3q6 1 17 2t24.5 2t20.5 2l36 3v24q-2 56 -14 68
q-6 6 -22 -4q-13 -7 -30 -7q-29 0 -41 17q-7 10 -7 28q0 30 15 44q45 41 51 41q3 0 20 13t40 13t25 -4q1 -2 20 -18.5t19 -21.5q0 -8 5 -16q8 -14 17.5 -53t10.5 -63l5 -127l2 -93l-22 -22q-23 -22 -44 -22q-14 0 -30 11q-27 19 -27 65q0 15 1 24q1 10 1 26q0 22 -7 22
q-6 0 -18 -14q-13 -13 -21 -13q-12 0 -93 -23q-25 -7 -61 -7q-62 0 -101 18q-17 8 -37 31.5t-33 49.5q-11 22 -13 36.5t-2 64.5q0 72 12 101q13 32 21 43q6 9 11 25q3 12 22 36q17 20 17 26q0 4 11 15q5 5 15.5 22.5t14.5 21.5t18.5 24t19.5 25q3 4 9 11t9.5 11t9 9t11.5 9z
" />
    <glyph glyph-name="H" unicode="H" horiz-adv-x="471" 
d="M297 692q13 7 26 7q24 0 45 -30q12 -16 15 -26t4 -31q2 -58 31 -206q12 -57 23 -170t11 -170v-15l-2 -56l-18 -17q-18 -16 -44 -16q-19 0 -24 2.5t-12 18.5q-10 23 -10 64q0 29 -4.5 96.5t-6.5 69.5l-72 4l-70 3l3 -57q5 -81 7 -104l3 -47l-14 -15q-21 -21 -41 -21
q-9 0 -14 1q-29 4 -38.5 32.5t-12.5 116.5q-5 159 -10 202q-11 95 -21.5 149t-32.5 138q-1 4 -1 12q0 29 21 53q10 10 24 10q21 0 36 -17q16 -17 22 -31t13 -48q38 -197 38 -217q0 -26 15 -35.5t73 -16.5q35 -3 47 -7l6 -2q4 0 4 8t-15 96q-33 191 -33 217q0 14 7 30
q8 17 22 25z" />
    <glyph glyph-name="I" unicode="I" horiz-adv-x="648" 
d="M350 765q94 12 186 12q62 0 78 -9q15 -10 15 -31q0 -23 -19 -35q-5 -4 -13 -4q-9 0 -22 4q-26 6 -80 6q-92 0 -103 -11q-1 -1 -1 -9q0 -18 3 -43q2 -24 2 -54q0 -121 -16 -291q-15 -150 -15 -230v-23q2 -82 4 -95q2 -15 5 -19.5t13 -5.5h3q20 0 63 10l53 11l18 -14
q12 -10 15 -16t3 -24q0 -28 -11.5 -37.5t-44.5 -11.5q-35 -2 -55 -8q-23 -7 -41 -7q-23 0 -71 -10q-43 -9 -78 -9q-36 0 -47 11q-8 8 -8 29q0 19 7 32q5 10 15 13t44 8q27 4 30 14q1 4 5 124q4 127 10 182q21 202 21 365q0 88 -8 96q-2 2 -12 2q-26 0 -103 -11
q-111 -15 -139 -15q-24 0 -32 10q-8 11 -8 21q0 12 11 25q10 11 29 14t160 19q27 3 75 8.5t59 6.5z" />
    <glyph glyph-name="J" unicode="J" horiz-adv-x="433" 
d="M292 719q4 0 20 -15t21 -15q7 0 7 -10q0 -11 11 -19q11 -9 30.5 -48t26.5 -68q8 -32 8 -81q0 -90 -19 -168q-13 -48 -39 -116q-11 -27 -51 -67q-23 -23 -66.5 -37t-89.5 -14q-43 0 -76 14q-13 6 -30 10l-15 4q-13 20 -13 48q0 15 6 20q6 4 82 4q52 1 67 3t28 9
q16 9 36 29t27 34q29 62 45 143q6 32 6 67q0 77 -22 123q-10 23 -38.5 54t-39.5 31q-8 0 -22 14.5t-19 27.5t-5 21q0 14 14 28q12 12 21 12q4 0 13.5 -2t15.5 -3q20 -3 28 -11q5 -7 13 -7q5 0 10 -7.5t9 -7.5z" />
    <glyph glyph-name="K" unicode="K" horiz-adv-x="669" 
d="M27 743q11 11 17 11q4 0 23 -7q14 -6 31 -26.5t17 -30.5q0 -6 4 -6t11 -21q9 -28 19 -46q14 -28 45 -144q14 -45 16 -47h1q7 0 38 30t55 61q17 22 40 47q20 23 31 23q6 0 10 -1q22 -3 38 -20.5t16 -38.5q0 -13 -5 -21t-26 -28q-28 -26 -28 -30q0 -5 -35 -42
q-34 -34 -34 -42q0 -4 2 -7q4 -7 16 -12.5t27.5 -11t21.5 -8.5q54 -26 95 -33q5 -1 48 -14t50 -13q8 0 11 -5t16 -5t33 -20.5t20 -33.5q0 -12 -16 -28q-14 -14 -29 -14q-13 0 -23 1q-42 4 -84 18q-46 16 -61 16q-14 0 -69 18.5t-79 31.5q-28 16 -40 16q-9 0 -9 -11
q0 -2 2 -20q1 -7 1 -20q0 -66 -46 -66q-18 0 -31.5 14t-17.5 37q-3 20 -10 62.5t-11 68.5q-17 103 -34.5 164t-55.5 147q-21 46 -21 75q0 21 10 32z" />
    <glyph glyph-name="L" unicode="L" horiz-adv-x="522" 
d="M27 790q9 10 54 10q32 0 40.5 -2t17.5 -12t11 -19.5t3 -44.5q2 -53 7 -89q6 -34 15.5 -113.5t9.5 -91.5q0 -13 12.5 -91.5t15.5 -82.5q1 -3 6 -3q9 0 70 29q50 25 59 25q6 0 25 15q18 15 49 18q7 1 18 1q16 0 25.5 -6t22.5 -24q16 -22 16 -49q0 -13 -5 -28
q-4 -10 -20 -18.5t-31 -8.5q-2 0 -4 0.5t-3 0.5q-2 1 -8 1q-32 0 -78 -22q-118 -54 -133 -68q-21 -18 -50 -18q-13 0 -22 4q-15 7 -31 26l-16 20l4 52q1 6 1 22q0 98 -24 201q-4 15 -10 91q-12 157 -35 173q-10 7 -10 16q0 8 -6 14t-6 28q0 32 10 44z" />
    <glyph glyph-name="M" unicode="M" horiz-adv-x="740" 
d="M45 787q6 9 12.5 11t30.5 2q23 0 31 -2.5t17 -11.5q12 -12 16 -26q3 -18 81 -174q12 -22 12 -28q0 -5 29 -65q19 -40 43 -93.5t39 -84.5q16 -32 16 -41q0 -6 8 -18t12 -12h1q2 2 6 59q4 63 8.5 100.5t11 75.5t10.5 77q5 48 8 58t13 18q13 10 24 10q20 0 41 -21
q12 -10 16.5 -20t9.5 -36q16 -78 22 -91q7 -14 13 -40q24 -96 25 -101q5 -19 21 -87.5t24 -94.5q4 -18 19 -73q9 -39 25 -89t21 -57q12 -12 12 -37q0 -10 -3 -22q-7 -27 -49 -40q-3 -1 -11 -1q-26 0 -26 9q0 6 -12 20q-7 8 -11 18t-6 18t-4.5 23.5t-4.5 25.5q-3 12 -45 195
q-2 8 -4.5 21t-4.5 21.5t-3 12.5q-18 64 -27 103q-13 48 -17 48q-11 0 -11 -96q0 -170 19 -205q6 -12 6 -26q0 -36 -26 -57q-7 -6 -25 -6q-24 0 -34 9q-9 8 -35 61q-5 12 -46 100q-22 46 -22 49t-20 45q-11 24 -18.5 40.5t-16.5 36t-18 40.5q-3 8 -14 32.5t-15 32.5
q-19 44 -44 91t-29 47q-5 0 -8 -126q-4 -153 -9 -197q-5 -48 -5 -60q0 -14 5 -26q10 -23 10 -43q0 -49 -63 -58q-12 -2 -14 -2q-9 0 -23 15q-22 23 -22 51q0 22 9 59q11 45 17 111q14 132 14 270q0 18 -1 20t-3 74q0 65 -9 105q-6 26 -6 34q0 7 7 19z" />
    <glyph glyph-name="N" unicode="N" horiz-adv-x="540" 
d="M428 790q16 10 32 10q21 0 42 -18q15 -13 17.5 -20t2.5 -31q0 -32 -5 -35t-5 -18q0 -16 -5 -24q-6 -11 -26 -144q-6 -41 -6 -168q0 -128 6 -134t6 -26q0 -28 -10 -48q-16 -31 -46 -31q-13 0 -31.5 15t-28.5 32q-12 21 -32 48q-18 22 -25 33q-11 19 -67 117
q-22 40 -49.5 82t-31.5 42q-6 0 -9 -54q-7 -104 -31 -245q-13 -76 -13 -88q0 -15 -10 -32q-9 -16 -20 -16q-3 0 -19 2q-28 3 -37 12q-10 10 -10 38q0 37 17 105q37 151 46 346v5q0 16 -6 56l-8 40l14 20q16 19 32 26q8 4 15 4q8 0 27 -11q38 -19 55 -77q8 -29 22 -48
q14 -18 14 -20q0 -5 28 -47q28 -43 41 -66.5t29 -48.5q14 -21 23 -40q8 -16 11 -16q8 0 11 113q3 118 11 158q8 38 8 92v16v28q0 39 2 47q3 9 19 19z" />
    <glyph glyph-name="O" unicode="O" horiz-adv-x="444" 
d="M307 658q-3 11 -19 11q-17 0 -31 -11q-14 -10 -48.5 -54.5t-34.5 -52.5q0 -7 -10 -17q-22 -20 -38 -72t-16 -101q0 -21 5 -43q9 -33 14.5 -46t17.5 -22q13 -10 24 -10q20 0 68 47q46 44 74 99q21 42 21 75q0 5 -1 6q-2 5 -4 38q-2 24 -10 80.5t-12 72.5zM307 782
q10 7 18 7q11 0 33 -13q20 -12 26 -26t15 -66q3 -23 19 -108q9 -50 9 -96q0 -71 -19 -122q-14 -38 -41 -83q-8 -16 -47 -61t-57 -58q-25 -18 -35 -21q-14 -4 -16 -7q-3 -5 -17 -5q-21 0 -51 9t-42 20q-44 39 -70 118q-15 45 -15 84v17q2 109 35 177q34 70 62 99
q9 9 41.5 53.5t41.5 60.5q9 15 25 15h13q36 -2 40 -2q21 0 32 8z" />
    <glyph glyph-name="P" unicode="P" horiz-adv-x="593" 
d="M28 642q12 11 24 11q1 0 4.5 -0.5t5.5 -0.5q23 -4 97 -12.5t101 -13.5q17 -3 50 -7.5t40 -5.5q37 -6 40 -9q7 -5 27 -8q30 -4 77.5 -27.5t64.5 -43.5q16 -20 16 -33q0 -12 -1 -21q-2 -23 -5.5 -33.5t-17.5 -28.5q-15 -21 -56 -54q-30 -24 -72.5 -52t-48.5 -28t-9 -7
q-3 -5 -60 -37t-63 -32t-20 -8q-10 -5 -13 -9.5t-1 -12.5q6 -27 22 -149q10 -69 13 -72q2 -2 2 -7q0 -10 -8 -22.5t-19 -19.5q-10 -5 -18 -5q-17 0 -34 20q-9 9 -11 20t-4 57q-4 64 -11 106l-6 42l-15 -2q-1 0 -3 -0.5t-3 -0.5q-11 0 -22 14q-19 22 -19 30q0 4 5 16
q8 14 8 22q0 4 16 12q14 6 14 17q0 9 -9 38q-30 90 -37 105q-13 30 -13 44q0 10 6 25q9 23 31 23t37 -23q11 -18 11 -22t20 -64q19 -56 23 -82q3 -21 10 -21q14 0 88.5 40t128.5 77q36 25 65 54t29 39q0 15 -17 25.5t-60 23.5q-114 35 -300 49q-60 4 -82 12t-27 26
q-5 14 9 26z" />
    <glyph glyph-name="Q" unicode="Q" horiz-adv-x="573" 
d="M447 594q-11 12 -53 13h-16q-44 0 -53 -12q-7 -7 -12 -7q-6 0 -19 -13q-11 -12 -23 -12q-2 0 -6 0.5t-7 0.5l-24 3l-23 -30q-38 -51 -68 -128q-15 -36 -27 -79q-3 -10 -8.5 -33.5t-7.5 -32.5q-7 -33 -7 -56q0 -3 0.5 -10.5t0.5 -11.5q1 -29 4 -38.5t13 -20.5
q15 -15 32 -17h6q15 0 35 6.5t20 12.5q2 3 3 3q4 -4 23 14q20 18 27 18t12 10q5 9 18 13q25 7 25 39q0 12 -1 19t-1 20q0 17 5 30q4 10 8.5 12.5t19.5 2.5q22 0 25 -5q9 -14 21 9l7.5 15t8.5 16q8 15 24 68.5t22 86.5q7 42 7 57q0 26 -11 37zM281 723q3 6 24 6q19 0 34 -16
q15 -17 52 -20q56 -5 84 -20.5t40 -48.5q11 -28 13 -30q3 -4 3 -23q0 -53 -12 -101q-33 -154 -51 -181q-12 -19 -12 -22q0 -4 -14 -27q-12 -21 -12 -31q0 -8 16.5 -44.5t28.5 -58.5q24 -42 52 -58q28 -15 28 -41q0 -10 -5 -15q-13 -13 -42 -13q-11 0 -17 1q-17 2 -45 27
q-31 28 -64 97q-14 29 -18 29q-5 0 -21 -16q-65 -66 -97.5 -85.5t-78.5 -20.5h-15q-25 0 -40 13q-16 13 -22 13q-4 0 -19.5 15.5t-25.5 29.5q-28 40 -28 123q0 28 5 70q4 28 18.5 84.5t20.5 63.5q3 4 11 28q10 30 16 40q32 59 60 99q14 20 57 64t59 54q15 11 17 15z" />
    <glyph glyph-name="R" unicode="R" horiz-adv-x="540" 
d="M374 616q-37 9 -143 10q-28 1 -68 1q-24 0 -36.5 -1t-16 -3.5t-3.5 -6.5q0 -24 61 -172q11 -33 15 -33t51 36t68 45q20 9 66 52.5t46 53.5q0 9 -40 18zM115 721q19 2 30 0q13 -2 93 -4q90 -3 122.5 -7t59.5 -17q49 -22 63.5 -34.5t23.5 -41.5q8 -26 8 -40q0 -2 -0.5 -4.5
t-0.5 -3.5q-5 -18 -41 -58.5t-75 -69.5q-31 -24 -40 -32q-66 -60 -88 -73q-11 -5 -11 -10q0 -7 52 -57q48 -48 148 -175q12 -16 20 -16q7 0 7 -7q0 -5 11 -16q25 -22 25 -72q0 -25 -9 -35q-17 -20 -45 -20q-22 0 -39 13t-21 36q-8 44 -74 133q-47 62 -63.5 80t-25.5 19h-2
q-4 0 -4 -4q0 -5 26 -97q4 -15 7.5 -28.5t8 -32t8.5 -34.5q8 -27 8 -53q0 -23 -8 -31q-4 -4 -23 -4h-8q-18 1 -24 4t-12 14t-18 59q-41 170 -49 201q-8 34 -13.5 46t-18.5 26q-24 25 -24 44q0 5 2 25q2 14 2 21q0 31 -30 97q-7 16 -22.5 56.5t-22.5 55.5q-6 13 -10 64
q-1 12 -1 28q0 22 10 32q20 18 88 23z" />
    <glyph glyph-name="S" unicode="S" horiz-adv-x="362" 
d="M138 749q42 20 57 20q14 0 32 -16l18 -17l-5 -29q-4 -21 -8 -27.5t-22 -16.5q-14 -8 -40 -21q-15 -7 -36.5 -29.5t-24.5 -33.5q-1 -2 -1 -6q0 -13 20.5 -39.5t87.5 -104.5q40 -45 47 -58q47 -81 59 -115q23 -64 23 -119q0 -34 -10 -53q-3 -7 -11 -30.5t-18 -34.5
q-12 -13 -21 -32q-12 -25 -52 -75q-6 -6 -28 -6q-26 0 -41 16t-15 42q0 16 6 35q10 29 39 57q25 24 42 56t17 54q0 27 -21.5 80t-42.5 76q-9 11 -13 18q-5 9 -68 79q-53 61 -72 93t-19 63q0 2 0.5 6.5t0.5 6.5q9 106 120 161z" />
    <glyph glyph-name="T" unicode="T" horiz-adv-x="542" 
d="M35 695q7 8 32 8q18 0 32 -1q56 -4 99 -9q29 -3 50 -3q34 0 42 8q6 6 19 6q17 0 37 -10q17 -9 68 -9q83 -2 94 -24q7 -13 12 -20q4 -4 4 -14q0 -20 -12 -35q-6 -7 -37 -7q-25 0 -44 1l-75 2l-6 -25q-3 -12 -9.5 -67t-8.5 -65q-5 -18 -21 -370q-1 -37 -7.5 -47t-29.5 -17
q-10 -2 -13 -2q-21 0 -44 22q-15 12 -15 33q0 11 5 24q4 10 10 85q2 23 7.5 82.5t6.5 73.5q15 173 19 263l1 17h-33q-47 1 -102.5 6t-67.5 10q-17 8 -25 20q-6 9 -6 15q0 7 4 19q5 21 14 30z" />
    <glyph glyph-name="U" unicode="U" horiz-adv-x="558" 
d="M24 729q7 5 39 5q22 0 30 -2.5t21 -14.5l18 -18l1 -116q2 -121 3 -123q5 -11 13 -93q5 -55 36 -123t63 -96q38 -33 55 -33q26 0 57.5 45.5t51.5 111.5q26 84 30 122q1 7 1 26q0 83 -18 124q-12 26 -12 38q0 11 9 17q11 8 35 8q44 0 63 -19q9 -9 12.5 -33.5t6.5 -99.5
q1 -16 1 -46q0 -95 -21 -165q-11 -34 -41.5 -96t-45.5 -79q-12 -15 -12 -21q0 -3 -19 -16q-27 -17 -82 -17q-15 0 -21 3q-7 4 -32 10q-23 7 -32 16q-8 10 -17 10t-16 9q-6 6 -30 26q-42 35 -78.5 117t-45.5 160q-3 27 -11 62q-6 30 -8 112q0 81 -5 89q-4 7 -6 52v15
q0 29 7 33z" />
    <glyph glyph-name="V" unicode="V" horiz-adv-x="527" 
d="M398 760q20 10 42 10q16 0 23 -3t19 -16q27 -30 27 -63q0 -21 -12 -26q-21 -10 -53 -172q-26 -127 -26 -281q0 -47 5 -69q4 -18 4 -30q0 -8 -1 -11q-2 -12 -6.5 -17t-17.5 -12q-19 -10 -38 -10q-14 0 -29 6q-16 7 -40 49q-13 23 -52.5 88t-52.5 92q-34 69 -73 138t-51 83
q-49 55 -49 97q0 13 3 18t13 12q14 8 29 8q23 0 43.5 -15t26.5 -38q3 -13 20 -39q13 -21 35 -60t31 -54q4 -7 26.5 -47.5t41 -73t21.5 -32.5q6 0 13.5 53.5t17 124.5t17.5 99q23 88 24 140l1 43z" />
    <glyph glyph-name="W" unicode="W" horiz-adv-x="651" 
d="M513 793q0 6 30 6h22l52 -2l-1 -17q0 -21 -7 -82q-5 -43 -5 -96q0 -23 1 -33q12 -256 22 -350q6 -56 6 -69q0 -14 -8 -25q-14 -19 -47 -19q-10 0 -20 3q-12 4 -20.5 14t-28.5 46q-36 66 -56 113q-19 45 -21 45q-5 0 -8 -106q-1 -27 -2 -61.5t-1.5 -52t-0.5 -23.5
q0 -16 3 -33q2 -14 2 -17q0 -10 -12 -25q-13 -16 -31 -16q-29 0 -39.5 8.5t-33.5 49.5q-53 93 -75 137q-52 104 -92 188q-68 148 -103 183q-22 22 -22 46q0 9 1 14q6 39 34 39q11 0 32 -8q20 -8 34 -24.5t14 -30.5q0 -5 9 -25q7 -14 39 -82q139 -293 148 -302q1 -1 2 -1
q7 0 11.5 50t4.5 111q0 23 -2 63q-4 77 -6 182l-2 118l13 5q4 2 14 2q33 0 55 -25q12 -14 21 -43.5t48 -197.5q24 -104 41 -131l1 -1q3 0 3 31q0 9 -2 75q-8 307 -13 335q-4 20 -4 34z" />
    <glyph glyph-name="X" unicode="X" horiz-adv-x="527" 
d="M306 578q7 13 23 13q25 0 50 -27q10 -11 10 -23q0 -2 -2 -26q-3 -26 -9.5 -57t-15.5 -67t-13 -56l-12 -52l25 -30q54 -63 115 -106q32 -24 32 -52q0 -8 -5 -20q-14 -28 -49 -28q-22 0 -34 15q-95 118 -103 118q-2 0 -7.5 -21.5t-12 -53.5t-10.5 -59q-4 -24 -4 -41
q0 -16 6 -46q1 -3 1 -10q0 -24 -34 -42q-16 -8 -23 -8q-6 0 -14 3q-35 11 -43 60q-3 17 -3 26q0 11 5 24q6 15 10 43q10 83 27 147q7 24 13 58l3 21l-104 106q-103 105 -107 116q-2 6 -4 33v7q0 16 14 22q10 5 14 5q5 0 17 -6q25 -14 91 -87q93 -102 101 -102h1q4 4 20 70.5
t20 91.5q3 26 11 41z" />
    <glyph glyph-name="Y" unicode="Y" horiz-adv-x="440" 
d="M37 706q4 2 13 2q21 0 46.5 -17.5t38.5 -43.5q17 -31 78 -105q44 -53 50 -53q1 0 3 2q4 8 18 50t34 88.5t28 55.5q5 8 20 8q10 0 13 -5t13 -5q9 0 19.5 -13t10.5 -24q0 -17 -53 -154q-22 -58 -22 -81q0 -9 3 -15q6 -12 6 -24q0 -17 -13 -33q-12 -16 -19 -16q-6 0 -10 -11
q-25 -83 -62 -230q-2 -8 -6.5 -25.5t-6 -24t-3 -21t-1.5 -32.5q0 -27 -2.5 -33.5t-14.5 -15.5q-17 -13 -43 -13q-42 0 -51 26q-5 15 -5 28q0 23 14 65q21 61 77 266q15 54 15 71q0 20 -29 56q-59 78 -75 95q-18 18 -44 48q-25 27 -36 31q-14 5 -19 30t-5 37q0 28 20 36z" />
    <glyph glyph-name="Z" unicode="Z" horiz-adv-x="613" 
d="M42 163q0 8 5 8t5 -8t-5 -8t-5 8zM326 625q40 5 82 5q62 0 83 -8q18 -8 32 -22q16 -15 16 -39q0 -39 -34 -89.5t-181 -228.5q-45 -57 -64 -78q-10 -13 -10 -18q0 -10 54 -10q6 0 21 0.5t25 0.5q101 3 132 10q23 5 37 5q32 0 59 -24q17 -16 17 -28q0 -2 -0.5 -6t-0.5 -7
q-4 -51 -49 -51q-13 0 -20 2q-6 2 -27 2q-25 0 -38 -2q-33 -4 -167 -8q-126 -2 -133 -3h-2q-11 0 -29 9q-13 7 -17 13t-8 27q-4 22 -4 28q0 26 25 54q18 20 18 23q0 7 54 69q5 6 16.5 19.5t29.5 35.5t29 35q21 26 56.5 67.5t54.5 66.5q2 3 26 33q14 18 11 23q-2 5 -25 5
q-27 0 -54 -5q-33 -5 -119.5 -24.5t-113.5 -27.5q-29 -8 -44 -8q-19 0 -29 10q-18 16 -18 49q0 14 4 23q4 12 10.5 14.5t50.5 10.5q169 36 244 47z" />
    <glyph glyph-name="bracketleft" unicode="[" horiz-adv-x="324" 
d="M173 753q11 7 21 7q18 0 32 -43q4 -12 4 -26q0 -12 -4 -12q-5 0 -48.5 -9t-53.5 -12q-12 -4 -14.5 -8t-2.5 -21q0 -47 13 -160q0 -3 48 -275q5 -29 14.5 -74t13.5 -71q2 -14 5 -18t11 -4q12 0 30 11q14 8 17 8q4 0 12 -5q13 -11 22 -37l11 -30l-12 -12q-11 -11 -26 -11
h-4h-3q-14 0 -37 -17q-21 -17 -39 -17q-16 0 -30 14q-11 10 -13 17.5t-2 34.5q0 26 -3 54.5t-6.5 48t-9.5 51.5t-9 47q-3 16 -26 145.5t-34 205.5q-13 88 -23 116q-8 22 -8 36q0 18 14 35q8 11 16 11q7 0 11 -1q1 0 4 -0.5t5 -0.5q21 0 56 7.5t48 14.5z" />
    <glyph glyph-name="backslash" unicode="\" horiz-adv-x="408" 
d="M27 608q11 11 23 11q27 0 57 -42q21 -30 32 -52q9 -18 50 -84q69 -111 80 -136q5 -11 22 -38q5 -8 35.5 -61t45.5 -71q16 -19 16 -26q0 -3 -3 -11q-12 -28 -35 -28q-5 0 -7 1q-17 5 -30 18t-16 27q-2 11 -32.5 71.5t-41.5 74.5q-2 3 -33 61q-29 55 -76 124.5t-76 99.5
q-19 22 -19 40q0 11 8 21z" />
    <glyph glyph-name="bracketright" unicode="]" horiz-adv-x="324" 
d="M101 757q22 17 36 17q7 0 23 -7q16 -8 21 -20t5 -40q0 -51 27 -200q5 -27 15 -85.5t19 -104.5q14 -73 27 -161t23 -116q8 -22 8 -36q0 -18 -14 -35q-8 -11 -17 -11q-7 0 -11 1q-1 0 -4 0.5t-5 0.5q-21 0 -56.5 -7.5t-48.5 -14.5q-11 -7 -21 -7q-17 0 -31 43q-5 15 -5 26
q0 12 5 12t49 9t54 12q11 4 13.5 8t2.5 21q0 49 -13 160q-3 20 -23 131t-25 144q-5 30 -14 75t-13 70q-2 14 -5.5 18t-11.5 4q-12 0 -30 -11q-14 -8 -17 -8q-4 0 -12 5q-13 11 -22 37l-11 30l13 12q11 11 25 11h4h3q16 0 37 17z" />
    <glyph glyph-name="asciicircum" unicode="^" horiz-adv-x="252" 
d="M115 637q8 11 14 11q7 0 23 -13t19 -31q7 -34 15 -62q2 -8 7 -23.5t8 -25.5t4 -16q8 -26 17 -44q11 -22 11 -29q0 -10 -12 -20q-11 -9 -19 -9q-29 0 -50 89q-13 59 -21 59q-5 0 -14 -19q-30 -65 -30 -96q0 -13 -9 -22.5t-22 -9.5q-10 0 -22 11.5t-15 24.5q-1 3 -1 8
q0 12 62 141q27 56 27 61t8 15z" />
    <glyph glyph-name="underscore" unicode="_" horiz-adv-x="512" 
d="M448 91q10 7 13 7t18 -15q18 -20 18 -51q0 -15 -7 -27q-11 -16 -29 -16q-8 0 -18 5q-11 8 -71 8h-31q-115 -1 -233 -18q-44 -7 -61 -7q-2 0 -4 1h-2q-19 8 -26 47q-1 5 -1 12q0 9 9 20q7 8 16 10.5t38 3.5q26 1 78.5 3t90 3.5t51.5 2.5q25 3 86 3q56 1 65 8z" />
    <glyph glyph-name="grave" unicode="`" horiz-adv-x="174" 
d="M27 645q7 5 11 5t20 -9q21 -11 28 -31q7 -19 37 -42q29 -23 32 -35q1 -3 1 -10q0 -23 -15 -33q-4 -2 -8 -2q-11 0 -25 9.5t-23 23.5q-14 22 -41 49q-28 29 -28 49q0 18 11 26z" />
    <glyph glyph-name="a" unicode="a" horiz-adv-x="506" 
d="M310 364v25l-18 -1q-45 -1 -104 -44q-40 -29 -68 -58t-28 -42q0 -22 58 -32q30 -5 39 -5q10 0 35 5q42 10 68 36t26 58q0 10 -3 19q-5 15 -5 39zM270 466q11 1 31 1q85 0 110 -36q18 -27 18 -33t-8 -14q-10 -10 -19 -10q-7 0 -7 -8q0 -6 3 -23q7 -55 29 -128.5t44 -117.5
q18 -35 18 -51q0 -20 -30 -33l-23 -11l-14 14q-10 10 -31 56t-30 77q-6 19 -17 19q-8 0 -22 -9q-26 -18 -69 -29t-79 -11q-26 0 -37 5q-4 2 -16 5.5t-16 5.5q-78 23 -87 103q-1 6 -1 16q0 26 31 75q11 17 54.5 55t66.5 51q3 2 8 5t8 5t5 3q17 14 80 18z" />
    <glyph glyph-name="b" unicode="b" horiz-adv-x="351" 
d="M243 287q-15 22 -35 22q-15 0 -37 -14q-10 -7 -11.5 -15t-1.5 -47q0 -54 -6 -58q-7 -4 1 -10q8 -5 15 -5q26 0 66 45q20 22 20 44q0 21 -11 38zM27 756l-10 44h35q34 0 37 -5q13 -22 30 -173q4 -32 11 -85.5t12 -104.5q5 -60 10 -65q2 -2 8 -2q10 0 23 3q27 6 45 6
q36 0 69 -33q36 -36 36 -85q0 -77 -81 -138q-39 -29 -61 -29q-13 0 -36 6q-32 9 -32 33q0 3 2 11q2 7 0.5 9t-7.5 2q-13 0 -25.5 7.5t-14.5 17.5q-11 35 -11 72q0 25 7 45q6 14 6 30q0 31 -16 184q-15 149 -37 250z" />
    <glyph glyph-name="c" unicode="c" horiz-adv-x="219" 
d="M71 458q10 12 11 12h1q10 0 33 -9.5t34 -18.5q18 -15 18 -32q0 -11 -10 -33q-31 -68 -31 -99q0 -18 17 -29q8 -5 19 -9.5t18.5 -9.5t13.5 -15q6 -12 6 -17q0 -4 -5 -16q-9 -18 -46 -29q-2 -1 -9 -1q-15 0 -35.5 5t-26.5 11q-8 8 -11 9q-7 3 -19.5 23.5t-16.5 36.5
q-15 61 -15 75q0 10 6 29q30 93 48 117z" />
    <glyph glyph-name="d" unicode="d" horiz-adv-x="197" 
d="M108 238q1 6 1 15q0 11 -3 11q-4 0 -13 -20q-13 -33 -13 -71q0 -12 3 -12h1q5 4 13 28.5t11 48.5zM23 742q8 7 11 7t16 -7q28 -15 57 -119q45 -165 52 -217q5 -31 9 -45q11 -35 11 -96q0 -26 -3 -41q-6 -30 -6 -38q1 -11 -20 -73q-6 -14 -30 -38t-38 -24q-13 0 -30 20
t-22.5 41.5t-5.5 67.5v16q1 52 5 75t17 42q7 9 10 13t7.5 6t10.5 2q7 0 12 -1q13 -1 16 0.5t3 12.5q0 23 -27.5 142t-45.5 172q-15 48 -15 65q0 13 6 17z" />
    <glyph glyph-name="e" unicode="e" horiz-adv-x="328" 
d="M200 371q19 22 19 27q0 1 -1 1q-11 0 -42.5 -18.5t-32.5 -25.5q-2 -10 -10 -18q-5 -5 -5 -9q0 -3 4 -3q8 0 22 7q18 9 46 39zM198 496q20 7 42 7q29 0 43 -14q10 -11 18.5 -33t8.5 -39q0 -44 -44.5 -99t-104.5 -86l-34 -16l8 -17q9 -18 27.5 -35.5t30.5 -20.5
q26 -7 26 -43q0 -17 -9.5 -24t-35.5 -10l-30 -4l-28 26q-28 26 -45 60q-18 34 -30 38q-24 9 -24 38q0 9 1 14q5 26 13 31q10 6 10 26q1 43 21 85.5t53 69.5q36 30 83 46z" />
    <glyph glyph-name="f" unicode="f" horiz-adv-x="285" 
d="M71 774l1 26h18q19 0 36 -7q26 -11 49 -39t23 -47q0 -5 -4 -11q-6 -7 -13 -7q-9 0 -22 8q-14 9 -19 5q-8 -8 -8 -207q0 -43 1 -59l1 -52l29 -3q33 -4 39 -7q8 -4 20 -8q11 -3 27 -17.5t17 -23.5q1 -10 -9 -11q-12 -2 -12 -6t-51 -8l-52 -4l3 -57q4 -59 9 -91q3 -14 3 -26
q0 -34 -19 -37h-2q-11 0 -26.5 20t-18.5 37q-1 4 -3 22.5t-5 38.5t-6.5 41t-7 35.5t-6.5 16.5q-6 6 -11 4h-2q-6 0 -15.5 14t-13.5 28q-4 16 -4 25q0 12 21 13l22 1l4 163q4 191 7 230z" />
    <glyph glyph-name="g" unicode="g" horiz-adv-x="323" 
d="M60 408q13 13 20 17t20 4q20 0 25 -7q1 -3 15 -12q8 -4 18 -19t10 -23v-2q0 -3 2 -1q1 1 3 1q13 0 26 -28q11 -22 36 -52q70 -87 70 -185q0 -35 -7.5 -80.5t-14.5 -50.5q-4 -3 -4 -11q0 -7 -20.5 -51t-25.5 -47q-4 -4 -7 -13q-4 -11 -20 -29q-18 -19 -33 -19
q-12 0 -27 9.5t-15 17.5q0 9 -8 23q-5 12 -5 22q0 18 12 23q13 5 23 17t24 42q42 87 43 166v16q0 32 -12 55q-11 20 -24 38t-17 18t-13 -20t-21 -23t-12 -8t-15 -5q-16 0 -18 5q-4 6 -10 4h-3q-11 0 -24.5 14t-22.5 34q-11 25 -11 39q0 4 2 24q5 30 13 48q8 14 8 22
q0 5 20 27z" />
    <glyph glyph-name="h" unicode="h" horiz-adv-x="416" 
d="M28 772q9 12 21 12q13 0 25 -13t36 -108q39 -164 52 -277q1 -6 3 -51q0 -37 6 -41q5 -3 7 2q2 6 12 6q11 0 24 -7q15 -7 46 -57t31 -67q0 -8 5 -13q4 -4 10 -23q5 -14 9.5 -17t29.5 -5q34 -3 43 -11q10 -10 10 -26q0 -12 -6 -19q-7 -8 -44 -21t-55 -13q-19 0 -36 21
t-17 22q0 5 -18.5 46t-20.5 41q-3 0 -9 -34.5t-7 -47.5q0 -13 -10.5 -24t-25.5 -15q-2 -1 -6 -1q-11 0 -20.5 7t-9.5 14t-7 7q-6 0 -9 33t-9 160q-7 130 -15 199t-31 166q-25 102 -25 128q0 12 11 27z" />
    <glyph glyph-name="i" unicode="i" horiz-adv-x="163" 
d="M69 352q12 16 25 16q12 0 27 -15q13 -14 16.5 -35t5.5 -110l2 -98l-15 -11q-13 -8 -18 -8t-14 3q-25 8 -31 32t-8 118q-1 23 -1 53q0 39 11 55zM35 631q11 12 19 12q12 0 48 -40q23 -26 23 -44q0 -11 -9 -19q-8 -6 -21 -6q-22 0 -46 12.5t-30 27.5q-2 8 -2 13q0 24 18 44
z" />
    <glyph glyph-name="j" unicode="j" horiz-adv-x="202" 
d="M50 434q7 10 15 10q11 0 37 -27q82 -90 82 -189q0 -86 -64 -150q-19 -19 -38 -19q-28 0 -43 13.5t-20 45.5q-1 5 -1 13t11 16t20 8q13 0 30 32.5t22 64.5q1 5 1 15q0 26 -27 69q-33 50 -33 75q0 12 8 23zM23 648q5 8 17 8q19 0 28 -14q6 -9 20 -25q12 -12 12 -23
q0 -6 -5 -31q-2 -8 -6.5 -10t-19.5 -2q-23 0 -32 7q-20 15 -20 61q0 19 6 29z" />
    <glyph glyph-name="k" unicode="k" horiz-adv-x="314" 
d="M27 596q9 7 15 7q5 0 24 -19.5t26 -32.5q22 -46 49 -123l10 -32l13 7q12 6 24 18q11 12 31.5 26t27.5 14h1q9 -2 28.5 -28.5t19.5 -36.5q0 -12 -4.5 -18t-25.5 -22q-58 -45 -58 -60q0 -6 24 -21q22 -13 42.5 -38t20.5 -40q0 -9 -3.5 -12t-17.5 -3h-15q-38 2 -59 11
q-25 10 -28 10q-7 0 -7 -17q0 -38 -25 -38q-39 0 -49 104q-1 17 -7 59t-7 50q-2 15 -14 51.5t-21 55.5q-25 54 -25 87v5q1 30 10 36z" />
    <glyph glyph-name="l" unicode="l" horiz-adv-x="155" 
d="M31 636q11 12 25 12q21 0 35 -23q10 -16 17 -122q12 -164 23 -269q7 -70 7 -77q0 -19 -9 -28q-11 -11 -16 -11q-6 0 -8 -5q-1 -3 -5 -3q-7 0 -19 8t-19 17q-12 18 -12 66q0 34 -2 67t-6.5 77t-6.5 66q-4 49 -13 126q-5 45 -5 58q0 24 14 41z" />
    <glyph glyph-name="m" unicode="m" horiz-adv-x="527" 
d="M196 576q5 5 17 5q13 0 23.5 -7t10.5 -17q0 -9 5 -12t5 -22q1 -14 21 -112q11 -60 20 -60q7 0 52 60q3 3 41 59q26 40 37 52.5t20 12.5q5 0 11 -3q18 -7 25 -21t16 -62q9 -51 9 -78q0 -6 -4 -74q-4 -82 -4 -110v-13l1 -33l-20 -13q-18 -12 -31 -12q-17 0 -32 22l-13 19
l6 85q7 85 7 106q0 12 -3 12q0 -1 -1 -1q-4 -2 -33 -43.5t-42 -63.5q-30 -50 -58 -50q-11 0 -17 5q-18 12 -35 68q-21 62 -28 105q-7 31 -11 31t-14 -20t-10 -28t-16 -29q-15 -21 -15 -25q0 -10 -43 -96q-1 -1 -1 -4t-1 -5q-1 -5 -15.5 -12.5t-22.5 -7.5t-23 17
q-13 15 -13 27q0 18 18.5 58t78.5 154q23 44 40 72q19 30 24 41q10 17 18 23z" />
    <glyph glyph-name="n" unicode="n" horiz-adv-x="590" 
d="M201 430q0 6 19 21.5t26 15.5q10 0 26.5 -18.5t27.5 -42.5q13 -27 18 -36q4 -7 4 -18q0 -9 24.5 -51t49.5 -75q25 -34 38.5 -45t33.5 -11q1 0 5 0.5t6 0.5q34 5 35 5h2q12 0 31 -13l25 -16l-21 -18q-17 -16 -52 -30q-24 -10 -36 -10q-8 0 -20 3q-61 14 -99 59
q-53 61 -89 135q-16 34 -20 34q-1 0 -2.5 -1.5t-3.5 -5t-4 -8t-4 -9.5q-43 -94 -61 -125q-19 -28 -51 -28q-17 0 -26 8q-10 8 -38 78t-28 88q0 15 11.5 27t24.5 15q3 1 8 1q9 0 25 -16q19 -19 22 -29q4 -15 10 -22q5 -6 7 -4.5t10 14.5q10 17 10 22q0 1 28 52t28 53z" />
    <glyph glyph-name="o" unicode="o" horiz-adv-x="409" 
d="M288 463q6 1 16 1q48 0 73 -62q14 -37 14 -59q0 -24 -13 -50q-11 -24 -43 -60t-66 -62q-21 -16 -46.5 -29.5t-35.5 -13.5q-8 0 -13 -5q-4 -4 -44 -8q-10 -1 -24 -1q-15 0 -33 11q-19 12 -37 39q-16 26 -19 61v10q0 62 40 117.5t108 88.5q38 19 48 19q4 0 8 -2
q28 -14 31 -52v-6q0 -16 -16 -28q-18 -14 -36 -21q-40 -15 -69 -47q-12 -13 -21 -36.5t-9 -39.5q0 -9 3 -12t14 -3q29 0 62 14q41 18 80 54.5t46 63.5q1 2 1 6q0 11 -7 23t-16 14q-9 3 -17 18.5t-8 28.5q0 11 7 11q8 0 8 8q0 7 14 9z" />
    <glyph glyph-name="p" unicode="p" horiz-adv-x="282" 
d="M161 276q-1 9 -8 13q-9 3 -6 -10q1 -2 2 -6q4 -9 8.5 -8t3.5 11zM114 381q33 9 40 9q8 0 28 -6q47 -13 68 -45q14 -20 14 -43v-11q-1 -52 -44 -136l-19 -35l16 -35q35 -82 35 -120q0 -19 -7 -32q-9 -18 -27 -18q-11 0 -18 1q-16 2 -23 6t-16 17q-15 21 -15 35
q0 16 -10 43q-10 26 -18 57q-8 29 -12 33t-22 59t-18 61q0 7 -12.5 29.5t-21.5 31.5q-15 15 -15 32q0 12 7 25q8 15 19.5 21t70.5 21z" />
    <glyph glyph-name="q" unicode="q" horiz-adv-x="264" 
d="M122 241q2 -2 7 1t7.5 7.5t-0.5 7.5q-4 3 -11 -4.5t-3 -11.5zM119 336q4 1 9.5 1.5t9 1.5t4.5 1h1q7 0 24.5 -12.5t17.5 -17.5t7 -5q5 0 13 -8q7 -7 16 -7t18 -13q7 -10 7 -37q0 -6 -2 -50q-6 -114 -11 -175q-5 -68 -5 -111q0 -26 1 -34q2 -28 2 -30q0 -14 -13 -24
q-16 -11 -30 -11q-32 0 -46 33q-7 15 -7 41q0 16 4 19q7 5 13 96q6 78 9 98q3 25 3 40q0 14 -3 17q-5 5 -27 -2t-49 -11q-7 -1 -16 -1q-12 0 -31 18q-15 13 -18 20.5t-3 27.5q0 43 32 85t70 50z" />
    <glyph glyph-name="r" unicode="r" horiz-adv-x="317" 
d="M225 463q7 2 19 2q20 0 32.5 -13t20.5 -43q2 -10 2 -13q0 -18 -36 -18q-58 0 -88 -59q-14 -27 -14 -55q0 -3 0.5 -13.5t0.5 -17.5q1 -32 1 -72q0 -12 -11.5 -25t-21.5 -13q-12 0 -26 8q-13 6 -19.5 22t-14.5 61q-10 60 -38 124q-15 35 -15 47q0 7 3 18q9 31 30 31
q9 0 18 -6q13 -9 24 -31q10 -21 14 -21q5 0 22 22q14 16 47 38.5t50 26.5z" />
    <glyph glyph-name="s" unicode="s" horiz-adv-x="394" 
d="M316 564q2 0 5.5 0.5t5.5 0.5q38 0 47 -40q2 -10 2 -14q0 -17 -18 -24.5t-68 -14.5q-27 -4 -63 -14.5t-42 -16.5q-1 -1 -1 -2q0 -9 17 -32q45 -64 45 -126v-9q-2 -27 -10.5 -45t-31.5 -44q-29 -33 -75 -65q-26 -18 -37 -27q-16 -13 -29 -13t-30 15q-16 14 -16 28v6
q3 36 39 57q24 14 58.5 44.5t42.5 43.5q10 18 10 25q0 9 -9.5 30.5t-16.5 28.5q-21 23 -35.5 50.5t-14.5 46.5q1 17 10.5 38t18.5 24q2 1 7.5 3t13 4.5t13.5 5.5q16 7 74 19.5t88 16.5z" />
    <glyph glyph-name="t" unicode="t" horiz-adv-x="404" 
d="M80 663q10 16 21 16q8 0 23 -10q18 -13 26.5 -40.5t20.5 -113.5q18 -119 18 -120q2 -9 46 -11q122 -9 122 -29q0 -4 10 -4q9 0 16 -9q3 -3 3 -7q0 -20 -54 -28q-35 -4 -38 -5h-6.5t-15.5 -0.5t-18 -0.5q-16 0 -22 -0.5t-13 -2.5t-8.5 -5.5t-1.5 -9.5q0 -7 7 -42
q10 -47 18 -67q11 -30 11 -45q0 -23 -23 -35q-16 -8 -21 -8q-2 0 -14 4q-16 7 -19 19q-26 78 -38 143l-6 34l-19 -3q-15 -3 -43 -7q-7 -1 -16 -1q-10 0 -20 18q-9 17 -9 25q0 6 3 17q5 20 12.5 28t24.5 8q48 0 48 17q0 11 -18 117q-18 101 -18 124q0 15 11 34z" />
    <glyph glyph-name="u" unicode="u" horiz-adv-x="385" 
d="M24 330q6 15 10 18t19 3q36 0 56 -47q10 -24 24 -24q8 0 20 6q18 9 28 23q24 32 47 32q14 0 24 -12t23 -20q11 -7 22 -33q14 -38 45 -44q16 -4 22 -20q3 -8 3 -15q0 -27 -31 -41q-18 -9 -38 -9q-38 0 -70 30q-17 17 -37 17q-8 0 -8 -5q0 -6 -29.5 -16.5t-51.5 -12.5
q-2 0 -6.5 -0.5t-6.5 -0.5q-39 0 -61 40q-12 23 -12 67q0 43 8 64z" />
    <glyph glyph-name="v" unicode="v" horiz-adv-x="282" 
d="M224 355q0 4 12 2q11 -2 19.5 -20t8.5 -39q0 -32 -20.5 -91.5t-39.5 -81.5q-12 -15 -33 -15q-25 0 -52 20t-45 53q-12 22 -33 43q-14 14 -18 22t-5 27q-1 7 -1 17q0 13 10 30q12 18 27 18q20 0 30.5 -6.5t30.5 -31.5q36 -46 41 -46h1l1 1q1 1 28 47.5t31 46.5q7 0 7 4z
" />
    <glyph glyph-name="w" unicode="w" horiz-adv-x="464" 
d="M382 541q8 9 17 9q19 0 35 -29q12 -21 12 -43q0 -34 -48 -221q-2 -9 -31 -103q-1 -5 -10 -34q-6 -16 -14 -10q-1 2 -11 -8q-7 -7 -16 -7q-29 0 -51 59q-20 53 -22 89q0 4 -2 4q-5 0 -17 -29t-14 -48q-5 -42 -27 -42q-10 0 -13 -5t-8 -5q-9 0 -23 14q-14 12 -34 67
q-27 76 -71 184q-17 41 -17 61v9q5 42 29 42q4 0 6 -1q12 -3 23.5 -13.5t11.5 -18.5t5 -13t18 -45q21 -59 25 -66q13 -31 15 -37q4 -13 11 -6t26.5 57.5t23.5 69.5q5 27 22 27h6q13 -1 26.5 -10t13.5 -16q0 -9 7 -21q6 -11 13.5 -37.5t13.5 -46.5t9 -20t11 23q33 128 37 172
q3 39 12 48z" />
    <glyph glyph-name="x" unicode="x" horiz-adv-x="280" 
d="M168 376q32 30 42 30q12 0 23.5 -9.5t11.5 -19.5q0 -11 7 -23q9 -13 2 -27q-4 -10 -14 -23q-5 -7 -5 -9.5t6 -6.5q9 -7 16 -25q6 -12 6 -17t-9 -17q-15 -18 -30 -18q-2 0 -40 4l-47 4l-27 -17q-26 -18 -30 -23q-3 -5 -18 -13q-12 -6 -17 -6q-4 0 -14 4q-9 4 -11.5 6.5
t-2.5 10.5q0 1 0.5 5.5t0.5 7.5q4 26 16 52q14 26 14 31q0 3 -14 15q-17 14 -17 50q0 17 7 23q8 6 8 19q0 7 3 9.5t13 2.5q15 0 25 -10t14 -10q5 0 15 -12q13 -16 23 -16q14 0 43 28z" />
    <glyph glyph-name="y" unicode="y" horiz-adv-x="290" 
d="M30 360q14 17 33 17q14 0 20 -12q4 -7 21.5 -30.5t21.5 -29.5q43 -71 54 -71h1q2 2 8 38q9 56 36 56q5 0 8 -1q17 -3 28 -19q11 -15 11 -64q0 -46 -7 -60q-37 -71 -47 -83q-18 -20 -53 -71t-47 -74q-16 -35 -28 -35q-15 0 -24.5 17.5t-9.5 44.5q0 51 57 140q14 22 14 31
q0 10 -15 23q-11 10 -37.5 46t-33.5 43q-9 10 -16.5 33t-7.5 39q0 5 13 22z" />
    <glyph glyph-name="z" unicode="z" horiz-adv-x="276" 
d="M32 429l11 18l30 -3q25 -3 59 -3q20 0 28 -3t24 -18q33 -30 33 -53q0 -8 -1 -13q-4 -22 -36 -59q-33 -39 -33 -47q0 -7 28 -11t31 -8q1 -4 23 -10q30 -8 30 -38q0 -1 -0.5 -4t-0.5 -5q-2 -10 -6.5 -14.5t-20.5 -10.5q-32 -13 -59 -13q-19 0 -40 4q-38 6 -55 22
q-29 28 -29 62q0 10 1 16q4 34 17 57q14 25 14 32q0 8 -15 8q-17 0 -32.5 17.5t-15.5 36.5q0 1 0.5 3.5t0.5 3.5q3 14 14 33z" />
    <glyph glyph-name="braceleft" unicode="{" horiz-adv-x="253" 
d="M97 661q20 16 33 16q11 0 22 -14q11 -16 11 -26q0 -13 -23 -30q-69 -47 -69 -110q0 -18 8 -31t36 -40q24 -23 28 -30.5t4 -27.5q0 -28 7 -38q11 -15 11 -37q0 -28 -20 -36q-14 -6 -32 -43q-16 -35 -16 -52q0 -11 1 -18q4 -33 16 -60q24 -49 99 -142q20 -25 20 -48
q0 -14 -8 -23t-22 -9h-3q-13 2 -17 6t-11 23q-9 26 -26 51q-49 70 -68.5 106.5t-29.5 78.5q-6 24 -6 48q0 37 17 77q9 21 9 33t-9 12q-7 1 -15 20.5t-8 34.5q0 20 12 32l13 13l-21 37q-15 26 -18 37t-3 39q1 95 78 151z" />
    <glyph glyph-name="bar" unicode="|" horiz-adv-x="153" 
d="M27 705q10 13 17 13t21 -11l15 -13l1 -83q4 -244 27 -453q10 -83 10 -106q0 -15 8 -31q6 -12 6 -38q0 -45 -12 -54q-8 -7 -17 -7q-10 0 -21 10q-23 18 -23 45q0 5 2 17q2 10 2 31q0 95 -13 176q-2 12 -10 160q-12 212 -21 310v6q0 17 8 28z" />
    <glyph glyph-name="braceright" unicode="}" horiz-adv-x="315" 
d="M30 790q5 4 14 4q11 0 27 -11q11 -8 52 -31q144 -79 144 -192q0 -32 -28 -91q-13 -28 -13 -31q0 -7 18 -10q11 -2 22 -23q8 -15 8 -23q0 -5 -5 -18q-6 -15 -17 -28q-11 -12 -11 -23q0 -12 13 -39q26 -53 33.5 -76.5t7.5 -49.5v-8q0 -37 -19 -76q-18 -36 -59 -86
q-39 -46 -41 -55q0 -8 -13.5 -20t-23.5 -12q-27 0 -32 45l-3 24l26 22q29 24 60.5 65t41.5 68q9 25 9 41q0 2 -0.5 6t-0.5 6q-4 24 -19.5 53.5t-31.5 42.5q-36 29 -36 67q0 1 0.5 4t0.5 4t0.5 4t0.5 5q0 12 -9 27q-10 16 -10 32q0 20 19 45q18 23 39 65q17 37 17 56
q0 2 -0.5 6.5t-0.5 7.5q-3 32 -17 46q-21 22 -68 49t-65 27q-11 0 -26 17q-15 16 -15 27q0 7 1 12q4 22 10 25z" />
    <glyph glyph-name="asciitilde" unicode="~" horiz-adv-x="295" 
d="M58 412q35 23 41 23q9 0 57 -34q28 -19 38 -19q12 0 23 17q14 20 30 20q13 0 21.5 -13t9.5 -35v-8q0 -11 -4.5 -18t-21.5 -23q-26 -25 -41 -25q-11 0 -32.5 9.5t-26.5 16.5q-3 5 -24 16q-14 7 -21 7q-5 0 -13 -3q-13 -6 -20 -16q-6 -9 -15 -9q-8 0 -25 14q-17 15 -17 30
q0 22 41 50z" />
    <glyph glyph-name="nbsp" unicode="&#xa0;" 
 />
    <glyph glyph-name="exclamdown" unicode="&#xa1;" horiz-adv-x="262" 
d="M110 348q10 15 17 15q4 0 24 -10q27 -14 27 -33q0 -11 -4 -24q-5 -20 -16 -69t-17 -72q-10 -43 -13 -61q-3 -20 -6.5 -35t-9 -36.5t-10.5 -42.5q-17 -62 -18 -65q-4 -7 -16 -7q-16 0 -32.5 11.5t-16.5 24.5q0 11 11 44q24 77 43 172q12 63 19 93q9 45 9 62q0 21 9 33z
M162 504q9 10 19 10q8 0 13 -1q20 -3 34 -19t14 -25q0 -19 -41 -19q-22 0 -36 14t-14 22q0 7 11 18z" />
    <glyph glyph-name="cent" unicode="&#xa2;" horiz-adv-x="338" 
d="M135 374q0 10 -7 10t-18 -10q-13 -10 -5 -16q5 -4 13 -4q17 0 17 20zM174 714q2 1 6 1q7 0 20 -3t15 -3q1 0 15 -14l15 -14v-164l14 -11q14 -10 14 -18q0 -7 5 -9t9 -22l2 -21l-28 -13q-21 -10 -27.5 -21t-6.5 -37q0 -8 3 -10t17 -2q31 0 60 -28q10 -10 10 -19
q0 -11 -20 -30q-22 -19 -38 -19q-13 0 -21 -7.5t-14 -9.5q-11 -3 -17 -15q-7 -16 -13 -54.5t-6 -62.5q0 -2 0.5 -6t0.5 -5q2 -16 2 -18q0 -10 -13 -22q-18 -18 -42 -18q-9 0 -14 1q-40 8 -42 54q0 24 5 29t14.5 49.5t10.5 64.5q0 12 -2 15.5t-12 5.5q-14 3 -37 25t-32 53
q-8 27 -8 56q0 17 4 25.5t23 27.5q16 18 28 25t35 15q36 11 40 17t4 100v33q0 48 4 60.5t17 18.5z" />
    <glyph glyph-name="sterling" unicode="&#xa3;" horiz-adv-x="565" 
d="M227 635q45 38 63 38q10 0 21 -9q17 -14 17 -41q0 -13 -6 -24q-9 -14 -20 -16q-12 -2 -43 -33q-49 -49 -49 -95v-5t2 -2.5t6 -1.5q13 0 114 21q80 16 101 22t34 16q15 11 28 11t32 -27q17 -25 17 -44q0 -13 -9 -27q-9 -13 -19 -13q-1 0 -3.5 0.5t-4.5 0.5h-8
q-21 0 -36 -4q-9 -2 -30.5 -7t-27.5 -6q-171 -35 -179 -47q-2 -3 -4 -39t-7 -66q-4 -17 -4 -31q6 -3 7 -3q23 0 65 3q69 6 82 13q6 5 17 5q33 0 50 -54q3 -11 3 -17q0 -7 -6 -21l-8 -18l-30 3q-4 1 -16 1q-22 0 -52 -4q-34 -5 -85 -9q-49 -5 -66 -17q-17 -14 -38 -14
q-12 0 -21 7q-33 27 -37 77v12q0 12 4 18.5t18 19.5q37 34 41 89l2 23l-18 -1q-23 -2 -38 -9q-13 -5 -23 -5q-15 0 -15 8q0 5 -12 15q-17 15 -17 42q0 17 9 29q11 16 24 14q1 0 2.5 -0.5t3.5 -0.5q11 0 41.5 6.5t33.5 6.5q6 1 6 32q0 27 9.5 64.5t21.5 57.5q12 19 57 56z
" />
    <glyph glyph-name="currency" unicode="&#xa4;" horiz-adv-x="435" 
d="M251 345q-3 3 -22 3q-35 0 -35 -29q0 -6 1 -9q4 -20 6 -22q3 -3 20 -3q33 0 39 6q7 7 7 30q0 20 -6 20q-7 0 -10 4zM21 498q3 4 9 4q19 0 65 -43q35 -34 47 -34q4 0 6 1q2 0 8 1t12 2.5l12 3t9.5 3.5t3.5 4q0 5 21 10q10 3 17 3q9 0 21 -6q18 -9 18 -12q0 -6 13 -6
q23 0 49 13q24 12 33 12q8 0 22 -14q12 -12 12 -24q0 -18 -26 -39q-19 -16 -19 -23q0 -1 2 -7q5 -11 9 -54q2 -32 5 -42t16 -25q29 -35 29 -51q0 -6 -1 -9q-2 -10 -5.5 -13t-14.5 -3q-19 2 -36 15t-31 24q-7 6 -16 6q-2 0 -5 -0.5t-8 -1.5t-9 -2q-15 -3 -35 -3q-13 0 -18 1
l-27 3l-29 -32q-30 -32 -32 -37q-4 -13 -21 -13t-31 13q-15 15 -15 34q0 32 39 71l23 23l-11 22q-12 25 -14 48q-2 20 -7 29t-31 35q-32 32 -43 48t-11 30q0 15 -5 22q-4 7 0 13z" />
    <glyph glyph-name="yen" unicode="&#xa5;" horiz-adv-x="367" 
d="M146 363q0 6 -8 6q-7 0 -7 -6q0 -5 7 -5q8 0 8 5zM21 716q3 7 11 7q12 0 26.5 -12.5t21.5 -28.5q16 -43 50 -111.5t40 -68.5q7 0 53 51t55 78q4 15 8.5 19.5t13.5 6.5h2q14 0 27.5 -13.5t17.5 -29.5q1 -3 1 -7q0 -12 -32 -54q-42 -53 -63 -74l-28 -29l14 -14
q18 -19 18 -46q0 -24 -15 -28q-5 -1 -6.5 -2t-1.5 -3t2 -4.5t8 -9.5q14 -17 14 -39q0 -14 -8 -22q-8 -6 -29 -4l-22 2l1 -62q2 -69 9 -90q6 -20 6 -27t-4 -15q-7 -16 -23 -16q-13 0 -25 11l-15 12l-2 91l-3 90h-13q-18 1 -33.5 20.5t-15.5 39.5q0 13 7 20q6 7 5.5 10
t-10.5 12q-17 15 -17 39q0 12 6 19q8 8 21 8q1 0 5 -0.5t7 -0.5q7 -1 16 -1q7 0 8.5 2.5t1.5 10.5q0 24 -84 171q-28 48 -28 80q0 6 2 12z" />
    <glyph glyph-name="brokenbar" unicode="&#xa6;" horiz-adv-x="195" 
d="M61 190q12 9 29 9q18 0 32 -10t18 -14.5t4 -13.5q0 -2 -2 -18q-3 -18 -3 -36q0 -29 9 -71q16 -74 22 -80t6 -19q0 -19 -9 -26q-13 -12 -31 -12q-25 0 -40 22q-8 11 -12 47q-13 107 -28 159q-7 21 -7 36q0 17 12 27zM29 638q8 8 18 8q16 0 35 -19l15 -15l5 -98
q6 -97 15 -117q7 -15 7 -29q0 -27 -36 -33h-7q-15 0 -26.5 7t-11.5 17q0 9 -4 12q-3 2 -5 55q0 61 -8 123q-2 16 -3.5 33t-2.5 25t-1 12q0 9 10 19z" />
    <glyph glyph-name="section" unicode="&#xa7;" horiz-adv-x="305" 
d="M218 457q0 4 -22 16t-27 12q-4 -1 -27 -29t-34 -46q-11 -17 -11 -25t9 -14q7 -7 13 -7t12 14q6 16 35 34q52 33 52 45zM205 702q11 6 13.5 6t12.5 -7q22 -14 22 -46q0 -13 -5 -19t-23 -14q-24 -12 -46 -27.5t-22 -20.5t47 -28q44 -21 62.5 -42.5t18.5 -51.5
q0 -39 -46 -80q-20 -17 -20 -24q0 -4 3 -12q7 -19 7 -26q0 -15 -15.5 -33.5t-71.5 -74.5q-83 -82 -97 -82q-8 0 -16 15q-10 16 -10 34q0 28 21 39q14 8 44.5 39t30.5 38q0 3 -26 12q-26 7 -41.5 29.5t-15.5 52.5q0 15 2 23q8 36 60 107q5 6 5 14q0 9 -5 26q-6 24 -6 37
q0 2 0.5 4t0.5 3q5 19 40 52t76 57z" />
    <glyph glyph-name="dieresis" unicode="&#xa8;" horiz-adv-x="283" 
d="M27 635q8 8 19 8q18 0 36 -18t18 -40q0 -21 -7 -30t-25 -12q-3 -1 -9 -1q-23 0 -39 33q-5 12 -5 24q0 24 12 36zM193 664q10 8 16 8q7 0 29 -12q22 -13 26 -28q3 -15 3 -26q0 -40 -35 -40t-51 47q-3 10 -3 19q0 18 15 32z" />
    <glyph glyph-name="copyright" unicode="&#xa9;" horiz-adv-x="354" 
d="M198 525q-6 5 -25 5t-28 -4q-13 -5 -31.5 -28.5t-22.5 -39.5q-4 -20 -4 -27q0 -48 55 -74q15 -8 25 -8t23 4q44 11 44 27q0 5 11 27q8 16 8 36t-8 28q-2 3 -16 19l-10 13v-14q0 -13 -15 -25q-15 -10 -15 -23q0 -7 5 -10t12 -19q5 -10 4 -15t-8 -12q-9 -11 -22 -11
q-20 0 -41.5 22.5t-21.5 44.5q0 38 28 68q15 16 25 16q2 0 14 -2q17 -2 17 0zM120 603q14 9 35 9q40 0 86.5 -27t64.5 -62q29 -57 29 -102q0 -14 -1 -22q-3 -33 -10 -49t-31 -41q-16 -16 -42.5 -28t-46.5 -12q-6 0 -9 1q-51 9 -90 33.5t-56 58.5q-7 14 -16 27q-4 4 -12 30
q-4 16 -4 20q0 8 11 43q14 42 45 76q32 35 47 45z" />
    <glyph glyph-name="ordfeminine" unicode="&#xaa;" horiz-adv-x="239" 
d="M65 566q16 4 33 4q16 0 19 -4q3 -5 13 -5q8 0 19 -10.5t11 -18.5q0 -5 14.5 -26.5t28.5 -36.5q8 -8 14 -22q2 -3 2 -10q0 -23 -44 -26q-7 -1 -16 -1q-8 0 -11.5 3.5t-9.5 14.5q-10 18 -20 18h-3q-24 -3 -37 -3q-22 0 -40 21q-20 21 -20 44q0 15 7 28q13 23 40 30z" />
    <glyph glyph-name="guillemotleft" unicode="&#xab;" horiz-adv-x="288" 
d="M208 416q10 15 22 15q10 0 22 -13q12 -15 12 -38q0 -16 -3 -23t-15 -17l-19 -16l15 -13q27 -24 27 -57t-28 -42q-2 -1 -5 -1q-7 0 -24 20q-16 20 -39 32q-19 9 -30 29q-8 18 -8 23q0 1 4 21q5 15 11 24t21 21q26 21 37 35zM79 410q31 25 45 25q10 0 17 -9q7 -7 7 -17
q0 -3 -2 -15q-2 -15 -7.5 -23t-23.5 -23q-34 -30 -34 -39t17 -24q14 -13 17.5 -20.5t5.5 -31.5q1 -9 1 -21t-10 -20q-11 -8 -18 -8q-6 0 -24 18.5t-18 25.5q0 8 -12 25q-22 32 -22 60q0 11 3 21q6 21 17 36t41 40z" />
    <glyph glyph-name="logicalnot" unicode="&#xac;" horiz-adv-x="230" 
d="M125 380q19 10 35 10q30 0 45 -33q7 -17 7 -31q0 -20 -12 -54q-11 -32 -17.5 -41t-20.5 -10h-5q-31 0 -35 40l-2 26h-44q-43 0 -51 7q-9 8 -9 35q0 23 8 36q6 9 20 9q13 0 24 -1q20 -2 24 -2q15 0 33 9z" />
    <glyph glyph-name="registered" unicode="&#xae;" horiz-adv-x="353" 
d="M124 469q4 8 30 8q18 0 24.5 -2.5t14.5 -11.5q9 -10 9 -24q0 -7 -1 -12q0 -2 -0.5 -6t-0.5 -5q0 -13 11 -25q16 -19 16 -36q0 -7 -4 -10q-7 -5 -24 -5q-15 0 -19 13t-10 14q-3 0 -2 -5q1 -3 1 -9q0 -13 -16 -13q-14 0 -18 6q-3 5 -7.5 49t-4.5 65q0 2 1 6v3zM208 484
q-16 13 -34 13q-32 0 -59 -30.5t-27 -69.5q0 -10 1 -15q6 -36 52 -58q15 -8 25 -8t23 4q44 11 44 26q0 5 11 27q8 16 8 37t-8 26q-2 2 -12 19q-8 15 -24 29zM120 569q14 9 34 9q40 0 86.5 -27t64.5 -62q29 -57 29 -101q0 -14 -1 -22q-3 -34 -10 -50t-31 -40q-35 -38 -84 -38
q-16 0 -41 7q-87 26 -119 85q-4 8 -10.5 17.5t-9.5 17t-6 21.5q-4 16 -4 20q0 8 11 43q14 40 44 75q32 35 47 45z" />
    <glyph glyph-name="degree" unicode="&#xb0;" horiz-adv-x="259" 
d="M159 525q-8 18 -22 18q-8 0 -24 -8t-23 -8q-6 0 -10 -6.5t-4 -15.5q0 -8 4 -15q5 -10 20 -19t27 -9q11 1 25 13t14 22q0 11 -7 28zM58 602q12 15 22 15q6 0 10 -1q5 -1 22.5 -3t26.5 -4q32 -6 47 -14q21 -13 37.5 -45t16.5 -59q0 -7 -1 -10q-5 -24 -20.5 -45.5
t-35.5 -30.5q-24 -11 -43 -11q-37 0 -90 50l-32 32l3 33q5 51 37 93z" />
    <glyph glyph-name="plusminus" unicode="&#xb1;" horiz-adv-x="419" 
d="M329 219q17 9 25 9q10 0 19 -12q8 -12 17 -32t9 -27q0 -13 -12 -19.5t-44 -9.5q-91 -9 -200 -48q-44 -17 -66 -17q-13 0 -17.5 2.5t-10.5 14.5q-9 18 -9 37q0 18 9.5 30t26.5 12q19 0 51 9q33 10 156 36q27 5 46 15zM100 559q7 9 19 9q10 0 19 -9q9 -11 19 -38t10 -42
q0 -22 12 -22q5 0 15 8q14 13 24 13q8 0 22 -12t26 -33.5t12 -35.5q0 -11 -11 -22q-9 -9 -20 -9q-2 0 -22 2q-22 2 -27 2q-6 0 -6 -1q0 -7 10 -41.5t16 -48.5q9 -21 9 -37t-10 -25q-7 -7 -13 -7t-17 4q-19 7 -24 13.5t-8 29.5q-4 28 -17 80q-3 16 -13 16q-8 0 -26 -6
q-20 -6 -39 -6q-22 0 -30 8q-3 3 -7 37l-4 34l17 7q17 8 44 12l26 3l-3 26q-1 8 -3.5 27t-3.5 27q-2 18 -2 20q0 11 6 17z" />
    <glyph glyph-name="uni00b2" unicode="&#xb2;" horiz-adv-x="294" 
d="M109 657q12 6 28 6q21 0 40 -9q20 -9 37 -42q16 -31 16 -42q0 -6 -7 -27l-8 -21l24 -24q36 -36 36 -67q0 -5 -1 -7q-3 -8 -18.5 -15t-30.5 -7q-6 0 -9 1q-18 3 -63 7q-42 4 -55 14.5t-17 42.5q-2 16 -2 19q0 13 13 27q37 44 37 52q0 3 -9 3q-15 0 -25 -5q-2 -1 -7 -2.5
t-12.5 -4t-11.5 -3.5q-6 -2 -17 -2q-29 0 -29 26q0 14 25.5 36.5t65.5 43.5z" />
    <glyph glyph-name="uni00b3" unicode="&#xb3;" horiz-adv-x="245" 
d="M32 658q13 10 33 10q16 0 60 -6q40 -5 53.5 -11.5t31.5 -29.5q15 -18 15 -31t-20 -35l-21 -21l21 -27q21 -27 21 -48q0 -27 -33 -58q-20 -20 -26 -34q-7 -16 -16 -16q-8 0 -14 -6q-2 -2 -8 -2q-28 0 -42 14q-6 6 -10 37q-2 18 -2 21q0 10 14 24q15 13 15 22q0 6 -7 6
q-8 0 -20 7q-17 11 -17 49q0 17 6 28q9 12 7 14l-22 12q-33 17 -33 52q0 18 14 29z" />
    <glyph glyph-name="acute" unicode="&#xb4;" horiz-adv-x="222" 
d="M130 728q11 12 27 9q34 -6 44 -42q3 -11 3 -20q0 -25 -27 -52q-24 -24 -47 -58.5t-25 -49.5q-2 -18 -5 -23t-12.5 -5t-12.5 5q-3 4 -21 13q-16 8 -26.5 26t-10.5 35t11 26q37 28 52 60q6 12 14 21t14 22q11 22 22 33z" />
    <glyph glyph-name="uni00b5" unicode="&#xb5;" horiz-adv-x="422" 
d="M151 498q15 2 33 4h6q16 0 34 -19q15 -18 15 -25q0 -4 -1 -6q-4 -12 -9 -16q-8 -6 -17.5 -38t-9.5 -55q0 -8 1 -11q4 -23 16 -23q5 0 17 5q57 27 80 79q16 32 24 35q2 1 8 1q26 0 44 -16q9 -9 9 -21q0 -14 -12 -43q-12 -27 -12 -45q0 -4 2 -32q4 -56 4 -60q0 -24 -10 -34
q-8 -8 -19 -8q-7 0 -12 1q-25 4 -50 35q-6 8 -3 23q1 4 1 10q0 5 -4 5q-3 0 -23 -10q-15 -8 -36 -8q-26 0 -41 11q-13 9 -16 4q-9 -9 -46 -173q-4 -18 -10 -79q-3 -37 -5.5 -47.5t-9.5 -16.5q-9 -8 -21 -8q-18 0 -46 24q-13 12 -13 25q0 12 9 42q7 24 23.5 92.5t24.5 95.5
q16 58 29.5 130.5t13.5 102.5q1 24 10.5 45.5t21.5 23.5z" />
    <glyph glyph-name="periodcentered" unicode="&#xb7;" horiz-adv-x="119" 
d="M23 404q5 12 9.5 14.5t16.5 2.5q19 0 35 -17q18 -18 18 -40q0 -21 -7 -30t-25 -12q-2 0 -4 -0.5t-4 -0.5q-24 0 -39 31q-7 13 -7 24q0 13 7 28z" />
    <glyph glyph-name="uni00b9" unicode="&#xb9;" horiz-adv-x="209" 
d="M61 659q17 20 30 20q11 0 24 -10q15 -11 20.5 -28.5t7.5 -65.5q2 -41 4.5 -51t12.5 -20q13 -14 24 -37q6 -15 6 -22q0 -8 -4 -19q-7 -21 -17 -28q-17 -11 -87 -11q-23 0 -29 2q-27 8 -27 58q0 12 1 18q2 19 5.5 25t17.5 15q19 12 19 23q0 12 -18 19q-13 6 -23 23.5
t-10 34.5q0 5 2 13q6 15 15 18q10 3 26 23z" />
    <glyph glyph-name="ordmasculine" unicode="&#xba;" horiz-adv-x="256" 
d="M156 505q-7 17 -22 17q-14 0 -24 -7q-10 -8 -21 -8q-17 0 -17 -24q0 -14 7 -22q6 -9 21 -17.5t24 -8.5h3q12 5 24 18t12 22q0 13 -7 30zM63 599q10 10 23 7q2 0 47 -8q39 -7 60 -26t36 -62q8 -22 8 -41q0 -29 -19 -61q-15 -26 -39 -37q-23 -10 -42 -10q-12 0 -27 5
q-35 14 -74 63q-19 24 -19 39q0 11 1 20q2 27 16 61.5t29 49.5z" />
    <glyph glyph-name="guillemotright" unicode="&#xbb;" horiz-adv-x="320" 
d="M26 400q7 11 10 11q4 0 18 -9t14 -12q0 -2 30 -21q51 -30 51 -73q0 -14 -5 -41q-5 -23 -16 -36t-23 -13q-11 0 -20 10q-20 21 -20 46q0 11 1 17q1 7 1 16q0 10 -16 20q-33 19 -33 58q0 16 8 27zM147 388q-6 17 -6 38q0 41 24 41q9 0 24.5 -15t15.5 -24t60 -79l5.5 -5.5
l8.5 -8.5l8 -8q14 -14 14 -38q0 -15 -3.5 -23t-15.5 -23q-17 -19 -28 -38q-8 -15 -22 -19q-3 -1 -8 -1q-9 0 -23 17q-16 19 -16 32q0 9 1 15q4 29 16 41q13 15 13 20q0 6 -25 31t-31 25q-4 0 -12 22z" />
    <glyph glyph-name="bullet" unicode="&#x2022;" horiz-adv-x="183" 
d="M41 438q13 14 31 14q29 0 65 -37q21 -21 26 -49q2 -16 2 -23q0 -47 -39 -61q-18 -7 -31 -7q-17 0 -34 15q-16 14 -30 40.5t-14 42.5q0 39 24 65z" />
    <glyph glyph-name="ellipsis" unicode="&#x2026;" horiz-adv-x="485" 
d="M217 211q9 3 17 3q15 0 26 -11q22 -26 22 -44q0 -9 -7 -28q-5 -12 -9 -15t-16 -3q-19 0 -36 18q-17 17 -17 39q0 34 20 41zM390 207q5 12 9.5 14.5t16.5 2.5q20 0 36 -17q17 -17 17 -40q0 -21 -7 -30t-25 -12q-1 0 -4 -0.5t-4 -0.5q-23 0 -38 31q-8 16 -8 25q0 8 7 27z
M22 207q5 12 9.5 14.5t16.5 2.5q19 0 35 -17q18 -18 18 -40q0 -21 -7 -30t-25 -12q-1 0 -4 -0.5t-4 -0.5q-23 0 -39 31q-7 13 -7 24q0 13 7 28z" />
    <glyph glyph-name="perthousand" unicode="&#x2030;" horiz-adv-x="621" 
d="M531 214l12 10h-13q-12 0 -19 -10q-5 -10 2 -10q6 0 18 10zM480 276q13 14 32 14q22 0 47 -17q42 -25 42 -63q0 -19 -14 -38q-10 -13 -38 -26t-45 -13q-33 0 -51 43q-7 19 -7 31q0 34 34 69zM357 211q10 7 10 13q0 3 -4 3q-3 0 -11 -3q-9 -4 -13.5 -11.5t0.5 -10.5
q4 -4 18 9zM315 282q10 7 25 7q21 0 44 -14.5t36 -36.5q9 -18 9 -26q0 -6 -3 -16q-6 -21 -14 -28q-38 -33 -81 -33q-13 0 -21 4q-12 7 -24 30t-12 40q0 15 13.5 38.5t27.5 34.5zM96 579q4 4 0 7.5t-4 -3.5q0 -3 1 -4t3 0zM72 644q13 7 29 7q27 0 48 -18t21 -44
q0 -33 -30 -58.5t-64 -25.5q-19 0 -32 10q-24 18 -24 50q0 51 52 79zM343 683q17 26 30 26q11 0 24 -10.5t13 -19.5q0 -8 -24 -43q-50 -73 -134 -248q-69 -141 -103 -210q-62 -126 -62 -129q0 -6 -10 -14t-17 -8q-11 0 -25 14q-14 13 -14 35q0 37 31 48q7 3 21.5 29
t71.5 142q114 228 126 260q17 41 72 128z" />
    <glyph glyph-name="Euro" unicode="&#x20ac;" horiz-adv-x="522" 
d="M329 674q11 4 23 2q6 -2 34 -2q21 0 35 -9.5t14 -21.5q0 -13 -18 -19q-6 -2 -28 -5q-34 -1 -94 -60q-64 -62 -64 -81q0 -2 1 -3q3 -3 16 -1q3 1 12.5 2.5t25 4t26.5 4.5q58 10 72 15q15 5 19 5q7 0 18 -6q14 -7 24.5 -23t10.5 -30q0 -13 -13 -28q-11 -12 -15 -12
q-2 0 -14 4q-7 3 -20 3q-14 0 -95 -12q-99 -17 -101 -18q-5 -3 -5 -15q0 -11 10 -11q9 0 17 1q179 21 188 28q5 5 23 5q20 0 35.5 -18.5t15.5 -39.5q0 -17 -11 -28q-9 -9 -19 -9q-8 0 -13 1q-4 1 -15 1q-29 0 -185 -20q-49 -6 -49 -17q0 -9 13 -25q28 -39 107 -60
q28 -7 59 -7q22 0 37 1l61 3l17 -15q18 -16 18 -37q0 -11 -6 -25q-3 -7 -7.5 -9t-20.5 -2q-21 0 -39 1q-105 4 -150 21q-54 20 -95.5 56t-53.5 74l-9 28h-32q-32 0 -47 13q-22 18 -22 48q0 17 9 28t26 11q8 0 17 -3q18 -6 31 -6q14 0 17 8q3 7 -5 7q-4 0 -16 -2
q-6 -1 -15 -1q-11 0 -26 11q-25 19 -25 43q0 7 1 10q6 27 48 27q2 0 6 -0.5t7 -0.5t8 -0.5t7 -0.5q43 0 43 17q0 6 20 46q13 25 25.5 41.5t41.5 43.5q45 41 60.5 53t28.5 16z" />
    <glyph glyph-name="trademark" unicode="&#x2122;" horiz-adv-x="575" 
d="M164 611q13 7 22 7q14 0 26 -15q17 -20 17 -37q0 -10 -6 -22q-8 -16 -17 -16q-1 0 -17 2l-25 4l1 -20q0 -34 20 -117q4 -13 4 -21q0 -6 -6 -17q-9 -13 -21 -13q-13 0 -22 14q-21 30 -21 56q0 12 -8 57.5t-10 47.5t-19 2h-13h-14q-12 0 -16 2.5t-11 14.5q-10 16 -10 34
q0 14 6 18q5 5 67 9t73 10zM322 627q9 11 14 11q7 0 18.5 -12.5t19.5 -28.5q12 -25 21 -28q1 0 3 -1q15 0 22 31q3 14 15 22q8 5 14 5q17 0 40 -39q21 -38 42 -65q25 -34 25 -58q0 -17 -12 -29q-8 -7 -12 -7.5t-14 4.5q-17 8 -32 39q-18 35 -23 35q-6 0 -16 -21
q-13 -31 -33 -31t-38 30q-11 18 -15 18q-5 0 -13 -68q-6 -48 -26 -48q-12 0 -25 18q-13 17 -13 38q0 24 13 80q12 55 14 75q0 19 11 30z" />
    <glyph glyph-name="quotesingle.ss01" horiz-adv-x="98" 
d="M30 606q6 7 11 7q8 0 22 -10l17 -10l-3 -64q-4 -100 -27 -113q-4 -2 -7 -2q-12 0 -24 23q-2 3 -2 28q0 36 4.5 85.5t8.5 55.5z" />
    <glyph glyph-name="period.ss01" horiz-adv-x="121" 
d="M24 174q10 10 23 10q20 0 45 -22q13 -13 13 -25q0 -1 -0.5 -4.5t-0.5 -5.5q-1 -21 -15 -28q-7 -4 -16 -4q-29 0 -47 28q-11 17 -11 30q0 12 9 21z" />
    <glyph glyph-name="exclam.ss01" horiz-adv-x="260" 
d="M33 34q-14 14 -14 25q0 19 39 19q23 0 37 -14q13 -13 13 -22t-11 -19q-9 -9 -24 -9q-22 0 -40 20zM176 610q4 8 17 8q18 0 32 -13q15 -13 15 -28q0 -8 -5 -23q-19 -50 -48 -186q-2 -13 -9.5 -50t-9.5 -44q-10 -45 -10 -65q0 -1 0.5 -4t0.5 -4q0 -12 -11 -25l-12 -14
l-22 9q-18 9 -25.5 16.5t-7.5 19.5q0 5 4 23q5 17 16 67t18 74q11 45 13 60q1 6 26 114q16 61 18 65z" />
    <glyph glyph-name="comma.ss01" horiz-adv-x="131" 
d="M51 194q8 2 13 2q32 0 45 -26q6 -10 6 -42q0 -75 -18 -116q-14 -34 -25 -47.5t-24 -13.5h-5q-28 5 -28 44q0 12 5 29q17 54 19 123q1 28 3 36t9 11z" />
    <glyph glyph-name="question.ss01" horiz-adv-x="362" 
d="M98 28q10 10 16 10q5 0 20 -10q29 -21 29 -54q0 -16 -9 -28q-9 -10 -18 -10q-16 0 -33 27q-14 23 -14 41q0 15 9 24zM131 655q57 12 89 12q30 0 49 -10q32 -16 52 -48t21 -68q0 -50 -27.5 -96t-115.5 -142q-56 -61 -56 -85q0 -12 11 -30q11 -19 11 -37q0 -13 -6 -21.5
t-16 -8.5q-11 0 -25 12q-11 10 -23.5 39.5t-14.5 50.5q0 2 -0.5 6t-0.5 6q0 28 20.5 62t79.5 102q102 118 102 158q0 11 -8 21q-9 9 -32 9q-14 0 -51 -5q-69 -11 -97 -29q-17 -12 -28 -12q-10 0 -25.5 16.5t-19.5 30.5q-1 3 -1 10q0 19 25 31.5t87 25.5z" />
    <glyph glyph-name="colon.ss01" horiz-adv-x="183" 
d="M83 189q10 10 19 10q10 0 24 -7q16 -7 27 -21t11 -27q0 -22 -21 -30q-4 -2 -14 -2q-31 0 -46 31q-10 20 -10 27q0 9 10 19zM28 418q7 6 22 6q19 0 22 -8q2 -5 9 -5q9 0 17.5 -18t8.5 -34q0 -7 -3 -12q-9 -14 -26 -14q-20 0 -40 20q-20 22 -20 43q0 15 10 22z" />
    <glyph glyph-name="semicolon.ss01" horiz-adv-x="142" 
d="M37 193q3 13 5.5 20t9 13.5t15.5 6.5q1 0 3 -0.5t4 -0.5q14 -3 31 -18.5t17 -25.5q0 -12 -14 -40.5t-29 -43.5q-17 -21 -30 -21q-1 0 -3 0.5t-4 0.5q-13 1 -16.5 4.5t-6.5 16.5q-2 6 -2 16q0 9 6 26q7 19 14 46zM21 474q6 7 17 7q14 0 31 -12q21 -18 21 -36q0 -8 -4 -16
q-6 -12 -21 -9q-27 6 -41 38q-9 19 -3 28z" />
    <glyph glyph-name="quotedbl.ss01" 
d="M161 563q9 9 21 9q21 0 40 -25t23 -60q6 -54 6 -69t-6 -27q-12 -23 -28 -23q-9 0 -20 8q-14 10 -21 25q-18 38 -24 117q-1 8 -1 20q0 15 10 25zM28 640q4 1 11 1q23 0 43.5 -22t29.5 -59q4 -15 4 -55q0 -80 -10 -98q-10 -19 -25 -19q-9 0 -18 6q-21 12 -28.5 36t-11.5 87
q-1 15 -1.5 36.5t-1.5 33t-1 14.5q-1 6 -1 16q0 20 10 23z" />
  </font>
</defs>
</svg>
