<?xml version="1.0" standalone="no"?>
<!DOCTYPE svg PUBLIC "-//W3C//DTD SVG 20010904//EN"
 "http://www.w3.org/TR/2001/REC-SVG-20010904/DTD/svg10.dtd">
<svg version="1.0" xmlns="http://www.w3.org/2000/svg"
 width="1024.000000pt" height="1024.000000pt" viewBox="0 0 1024.000000 1024.000000"
 preserveAspectRatio="xMidYMid meet">
<metadata>
Created by potrace 1.14, written by Peter Selinger 2001-2017
</metadata>
<g transform="translate(0.000000,1024.000000) scale(0.100000,-0.100000)"
fill="#000000" stroke="none">
<path d="M4768 9965 c-2 -2 -66 -6 -143 -10 -305 -14 -506 -38 -780 -90 -75
-14 -268 -70 -350 -100 -293 -110 -500 -286 -616 -522 l-35 -72 -68 49 c-79
57 -218 127 -326 163 -360 119 -738 29 -1038 -247 -109 -100 -242 -292 -310
-448 -37 -84 -85 -231 -96 -295 -27 -145 -24 -423 4 -498 4 -11 8 -23 8 -28 4
-73 75 -252 144 -366 129 -211 303 -348 528 -415 88 -27 126 -31 273 -31 75 0
136 -2 135 -5 -2 -3 -41 -66 -87 -140 -371 -594 -717 -1351 -990 -2168 -162
-482 -259 -906 -289 -1250 -13 -153 -7 -488 11 -607 22 -141 20 -134 56 -267
95 -358 293 -672 641 -1018 69 -69 141 -139 160 -155 72 -62 247 -202 300
-240 30 -22 57 -42 60 -45 5 -5 196 -133 235 -157 202 -124 515 -283 725 -368
242 -99 625 -213 865 -259 44 -9 89 -17 100 -20 64 -13 284 -43 380 -51 33 -3
98 -9 145 -14 83 -8 701 -6 810 3 30 2 98 7 150 11 91 6 116 8 225 20 28 2 75
7 105 10 30 3 73 8 95 11 71 10 89 13 144 19 30 4 61 8 70 10 18 3 90 14 136
21 17 2 41 6 55 9 14 3 41 7 60 10 19 3 42 8 50 10 8 2 33 6 55 10 22 3 56 10
75 15 19 5 51 12 70 15 19 3 47 8 62 11 15 3 30 6 33 6 5 0 451 115 475 123 8
2 38 11 65 19 232 66 591 198 811 296 84 38 357 176 412 209 29 17 55 31 58
31 3 0 17 8 32 19 15 10 79 52 142 93 244 158 468 353 577 501 86 116 83 112
142 232 86 175 145 386 175 630 27 207 27 706 1 865 -2 14 -6 52 -10 85 -17
162 -83 544 -119 685 -2 8 -16 62 -31 120 -113 449 -272 881 -462 1263 -31 62
-118 216 -193 342 -230 387 -307 525 -483 872 l-107 212 32 -11 c18 -6 96 -12
173 -13 120 -3 154 0 238 21 453 111 755 561 742 1104 -9 347 -150 674 -400
925 -224 224 -490 338 -772 329 -221 -8 -452 -92 -641 -234 l-89 -67 -13 36
c-26 73 -125 216 -204 296 -86 88 -159 146 -241 191 -27 15 -63 35 -80 44
-171 94 -550 193 -860 225 -33 3 -73 8 -90 10 -29 4 -119 11 -250 21 -67 5
-863 13 -867 9z m914 -285 c640 -47 1045 -172 1267 -390 67 -66 105 -119 151
-210 73 -144 101 -261 160 -665 63 -430 122 -688 200 -870 11 -25 15 -45 10
-45 -4 0 -75 18 -157 41 -511 141 -1035 235 -1553 281 -214 19 -843 16 -1100
-6 -585 -48 -1166 -138 -1771 -274 l-87 -19 24 71 c74 216 112 420 160 849 47
428 75 566 145 697 191 360 684 519 1714 554 163 5 692 -4 837 -14z m-3359
-539 c144 -38 298 -124 396 -222 l43 -43 -7 -61 c-3 -33 -8 -62 -10 -64 -3 -2
-29 19 -59 46 -242 221 -709 221 -978 -1 -156 -129 -244 -313 -283 -592 -8
-61 -9 -214 -1 -254 26 -125 92 -237 205 -350 110 -110 223 -184 380 -248 30
-12 52 -25 49 -27 -10 -10 -174 -7 -235 4 -172 32 -304 122 -414 282 -59 88
-114 217 -134 320 -3 13 -8 35 -11 49 -13 58 -12 258 1 332 72 398 341 730
670 826 39 11 81 22 95 25 59 9 220 -3 293 -22z m5959 11 c150 -37 270 -106
394 -227 135 -132 236 -299 290 -477 33 -113 36 -129 39 -283 4 -175 -21 -299
-89 -440 -134 -276 -337 -410 -611 -405 -128 2 -129 3 -26 44 219 88 414 254
501 425 48 97 66 175 64 281 -9 508 -253 830 -669 886 -126 16 -264 5 -375
-32 -101 -34 -168 -74 -243 -145 -34 -32 -63 -59 -64 -59 -1 0 -7 24 -14 54
-11 50 -10 56 9 84 73 102 238 212 401 269 114 39 288 50 393 25z m-5917 -477
c106 -30 193 -107 253 -224 73 -141 81 -190 57 -326 -3 -16 -10 -55 -15 -85
-6 -30 -13 -66 -16 -80 -3 -14 -7 -36 -10 -50 -9 -43 -43 -165 -54 -194 -10
-28 -145 -198 -161 -204 -12 -5 -126 24 -219 55 -234 78 -409 205 -480 350
-43 87 -46 154 -15 338 35 209 151 362 315 414 95 30 252 33 345 6z m5855 -1
c232 -67 353 -277 354 -614 0 -78 -3 -90 -33 -148 -40 -73 -131 -170 -208
-219 -110 -70 -296 -144 -437 -173 -58 -12 -61 -11 -79 11 -10 13 -37 46 -60
72 -23 27 -46 56 -51 64 -10 19 -45 116 -57 158 -4 17 -13 48 -19 70 -6 22
-24 104 -40 183 -26 133 -27 147 -15 195 47 182 139 319 252 375 34 17 95 36
148 45 43 7 193 -4 245 -19z m-2320 -1142 c370 -41 716 -102 1087 -192 304
-74 783 -215 783 -231 0 -21 -132 -139 -193 -174 -84 -46 -216 -90 -340 -111
-153 -27 -289 -15 -639 55 -579 117 -903 151 -1443 151 -557 0 -829 -36 -1487
-194 -240 -57 -350 -71 -458 -56 -184 25 -431 149 -523 263 -37 45 -77 118
-77 140 0 22 605 154 1065 232 405 68 698 102 1190 139 28 2 230 2 450 1 322
-2 436 -7 585 -23z m-3480 -584 c94 -152 297 -299 529 -382 128 -46 204 -59
341 -60 124 0 194 8 354 45 142 33 136 31 216 52 53 15 228 54 280 63 14 3 32
7 40 9 28 8 256 43 330 51 25 2 63 6 85 9 241 27 969 27 1170 0 17 -2 57 -6
90 -9 49 -4 227 -28 310 -40 58 -9 293 -54 370 -71 288 -61 357 -70 555 -69
174 0 236 10 400 59 145 43 309 135 390 218 l26 25 67 -131 c174 -339 285
-540 465 -837 175 -290 336 -623 432 -895 12 -33 25 -69 30 -80 14 -36 47
-137 89 -275 23 -74 46 -148 51 -165 64 -209 155 -668 185 -935 30 -271 28
-766 -5 -928 -5 -26 -11 -60 -14 -77 -3 -16 -7 -39 -10 -50 -2 -11 -9 -40 -15
-65 -21 -90 -63 -207 -110 -305 -69 -141 -154 -244 -321 -390 -92 -80 -316
-238 -433 -306 -33 -19 -73 -42 -90 -53 -131 -77 -468 -233 -692 -319 -101
-39 -358 -126 -450 -152 -33 -9 -71 -21 -85 -26 -26 -9 -362 -95 -402 -103
-13 -2 -45 -10 -73 -16 -27 -6 -61 -14 -75 -16 -14 -3 -70 -13 -125 -24 -126
-24 -204 -38 -322 -55 -18 -3 -47 -7 -63 -10 -46 -6 -179 -24 -235 -30 -27 -3
-63 -8 -80 -10 -16 -2 -70 -7 -120 -10 -49 -4 -97 -9 -105 -10 -101 -19 -864
-27 -1035 -12 -92 8 -360 43 -405 52 -14 3 -38 7 -55 10 -425 73 -964 264
-1360 484 -33 19 -80 45 -105 58 -25 14 -52 31 -60 37 -8 7 -22 16 -30 20 -59
27 -316 209 -445 314 -118 97 -157 133 -295 272 -373 375 -545 697 -605 1130
-25 188 -11 572 30 810 97 559 381 1391 737 2160 45 96 87 182 95 191 7 8 13
22 13 30 0 8 4 19 9 24 4 6 39 69 76 140 37 72 82 155 100 185 157 265 313
518 322 520 1 0 16 -23 33 -52z"/>
<path d="M3711 9344 c-12 -15 -21 -32 -21 -38 0 -6 29 -92 65 -191 l66 -181
-67 -244 c-53 -198 -64 -248 -55 -267 22 -49 98 -55 122 -11 6 12 40 127 75
255 35 128 66 238 70 245 4 6 65 92 136 190 70 99 128 187 128 197 0 29 -39
71 -65 71 -43 0 -56 -12 -152 -147 l-96 -135 -45 124 c-24 67 -51 131 -60 141
-24 27 -76 22 -101 -9z"/>
<path d="M4305 9350 c-15 -17 -24 -75 -51 -318 -40 -357 -40 -363 -13 -388 17
-16 40 -20 133 -22 125 -4 162 5 177 45 24 64 -25 103 -129 103 l-55 0 6 48
c4 26 9 75 13 110 l7 62 63 0 c56 0 65 3 83 26 27 35 26 59 -4 89 -19 20 -34
25 -75 25 -48 0 -50 1 -50 28 0 68 5 72 89 72 64 0 81 4 99 20 28 26 29 73 2
100 -18 18 -33 20 -148 20 -117 0 -131 -2 -147 -20z"/>
<path d="M4701 9351 c-22 -22 -22 -22 -61 -390 -28 -257 -29 -285 -15 -307 19
-30 59 -37 185 -32 93 3 103 5 121 27 24 30 24 62 0 92 -16 20 -30 24 -94 27
l-75 4 4 32 c3 17 8 65 12 106 l7 75 68 5 c75 5 97 21 97 70 0 44 -38 70 -99
70 -50 0 -53 1 -47 23 3 12 6 34 6 50 l0 27 79 0 c60 0 84 4 99 18 32 26 37
63 12 95 -21 27 -22 27 -151 27 -113 0 -131 -2 -148 -19z"/>
<path d="M5060 9350 c-27 -27 -26 -71 3 -98 16 -16 38 -22 83 -24 l61 -3 -83
-255 c-46 -140 -84 -267 -84 -281 0 -50 30 -64 154 -67 124 -4 162 5 176 44
24 62 -20 104 -111 104 -37 0 -50 3 -46 13 2 6 42 128 88 270 l83 257 -21 28
c-20 27 -21 27 -151 30 -121 2 -133 1 -152 -18z"/>
<path d="M5420 9350 c-25 -25 -25 -19 10 -305 32 -264 44 -308 95 -370 103
-126 262 -90 325 73 18 48 20 76 20 317 0 252 -1 266 -20 285 -11 11 -33 20
-50 20 -17 0 -39 -9 -50 -20 -19 -19 -20 -33 -20 -270 0 -260 -5 -297 -44
-329 -13 -11 -22 -12 -34 -5 -38 25 -52 80 -82 325 -16 134 -30 247 -30 252 0
18 -43 47 -70 47 -17 0 -39 -9 -50 -20z"/>
<path d="M6040 9350 c-106 -56 -143 -179 -87 -286 21 -41 84 -96 152 -135 78
-44 107 -81 103 -133 -3 -38 -6 -42 -40 -50 -62 -15 -99 2 -128 59 -32 63 -67
79 -108 48 -33 -25 -39 -62 -17 -119 28 -74 99 -124 195 -136 21 -3 29 -16 63
-108 21 -58 45 -111 54 -117 28 -21 80 -16 97 9 22 32 20 51 -16 154 l-32 91
31 32 c63 62 64 188 3 284 -21 34 -51 59 -115 98 -48 29 -95 64 -106 77 -38
49 -14 112 44 112 33 0 57 -24 57 -59 0 -59 84 -88 122 -42 30 38 15 134 -29
183 -49 56 -174 75 -243 38z"/>
<path d="M3148 6285 c-2 -2 -22 -6 -45 -10 -142 -21 -333 -118 -472 -241 -60
-52 -181 -196 -237 -281 -169 -257 -314 -627 -388 -993 -25 -125 -26 -131 -48
-260 -28 -172 -30 -505 -3 -582 2 -7 6 -24 9 -38 13 -77 74 -228 129 -320 84
-138 190 -243 338 -335 67 -41 205 -102 254 -111 11 -2 45 -9 75 -15 62 -13
220 -15 325 -5 386 39 691 229 946 591 33 47 86 134 141 236 63 113 138 346
153 472 3 26 7 67 10 91 16 128 6 380 -21 530 -59 339 -210 692 -387 911 -201
248 -424 368 -673 364 -56 -1 -104 -3 -106 -4z m261 -286 c245 -86 490 -433
600 -851 51 -190 65 -309 64 -509 -1 -223 -41 -395 -135 -584 -178 -357 -430
-591 -713 -664 -158 -41 -340 -49 -455 -20 -137 35 -271 114 -363 213 -40 43
-110 152 -135 208 -22 52 -57 187 -67 258 -10 85 -6 258 10 360 19 124 27 169
46 257 26 124 23 113 49 213 130 510 375 910 650 1062 149 82 318 103 449 57z"/>
<path d="M3210 5823 c-204 -26 -352 -101 -486 -247 -147 -159 -247 -384 -301
-673 -27 -148 -25 -425 5 -558 57 -260 178 -465 339 -576 91 -63 161 -82 298
-80 304 5 428 98 618 468 121 237 158 387 157 638 -1 421 -140 794 -354 956
-71 54 -185 84 -276 72z m161 -159 c102 -51 208 -213 268 -409 32 -107 35
-122 55 -260 12 -83 14 -342 3 -390 -3 -11 -8 -40 -12 -63 -13 -82 -54 -191
-114 -310 -138 -269 -224 -364 -361 -396 -64 -15 -73 -10 -47 29 21 32 38 102
44 181 6 72 6 72 43 89 85 38 161 148 190 274 18 75 15 232 -6 321 -19 84 -53
167 -90 222 -23 33 -26 46 -26 132 0 196 -77 359 -198 421 -171 87 -353 -40
-405 -282 -15 -75 -14 -241 3 -284 6 -15 9 -29 7 -31 -19 -19 -31 -361 -15
-441 16 -83 54 -158 105 -208 l42 -42 -3 -101 c-3 -100 10 -188 35 -235 40
-74 -78 7 -161 111 -230 286 -257 816 -63 1254 99 223 298 401 483 430 21 3
39 8 42 11 14 14 139 -2 181 -23z m-291 -244 c84 -43 144 -181 144 -330 0
-239 -148 -411 -283 -329 -195 119 -193 538 4 660 39 24 86 24 135 -1z m266
-728 c36 -187 -3 -367 -97 -446 -17 -14 -34 -26 -39 -26 -5 0 -16 22 -25 49
-34 104 -109 170 -176 156 -30 -7 -86 -54 -107 -90 -12 -20 -12 -20 -33 5 -47
55 -71 126 -74 223 -1 51 0 114 2 140 l5 49 37 -35 c48 -47 93 -68 156 -74 98
-10 211 64 265 175 l25 50 23 -51 c13 -29 30 -85 38 -125z m-287 -388 c80
-102 72 -373 -14 -444 -15 -13 -20 -11 -41 13 -72 84 -74 341 -3 430 25 33 32
34 58 1z"/>
<path d="M6708 6271 c-374 -104 -605 -566 -610 -1221 -1 -94 9 -300 17 -338 2
-11 7 -42 11 -69 3 -26 8 -57 10 -68 2 -11 7 -36 10 -55 4 -19 8 -42 9 -50 2
-8 12 -52 24 -96 103 -402 338 -792 615 -1022 83 -69 234 -153 352 -195 196
-70 492 -91 670 -47 388 96 674 408 753 820 21 108 29 318 16 415 -2 17 -7 55
-11 85 -4 30 -8 64 -9 75 -10 67 -52 229 -91 345 -80 241 -255 561 -407 744
-23 28 -51 62 -62 75 -52 65 -247 248 -329 309 -217 163 -378 239 -630 299
-11 2 -77 7 -146 9 -101 3 -138 0 -192 -15z m262 -254 c65 -9 158 -37 240 -72
356 -152 691 -495 900 -920 274 -557 286 -1103 30 -1412 -72 -87 -217 -192
-300 -217 -121 -36 -161 -43 -260 -41 -309 6 -508 90 -715 299 -221 224 -397
584 -459 936 -32 178 -40 273 -40 450 0 289 46 522 137 705 112 226 243 302
467 272z"/>
<path d="M6897 5940 c-128 -49 -223 -175 -290 -385 -22 -70 -32 -107 -51 -212
-22 -111 -29 -463 -13 -610 19 -185 71 -364 149 -518 157 -311 335 -467 583
-511 90 -16 294 -19 340 -6 106 32 212 125 271 237 83 157 121 345 121 595 1
305 -49 543 -161 771 -39 79 -118 212 -136 229 -3 3 -22 26 -43 52 -178 222
-422 365 -637 373 -64 2 -97 -2 -133 -15z m230 -136 c125 -35 243 -107 348
-212 155 -154 257 -324 329 -547 91 -284 95 -679 10 -937 -44 -134 -136 -250
-219 -275 -36 -12 -230 -10 -298 2 -201 35 -351 172 -488 448 -62 123 -88 199
-108 314 -6 32 -13 72 -16 88 -19 107 -26 362 -12 510 22 251 99 474 195 568
66 64 137 76 259 41z"/>
<path d="M7051 5520 c-84 -28 -135 -81 -196 -205 -75 -152 -96 -315 -54 -425
11 -30 21 -62 21 -70 0 -8 -1 -60 -2 -115 -2 -114 4 -167 26 -245 37 -130 113
-239 206 -294 48 -28 135 -56 175 -56 12 0 43 -21 71 -48 91 -89 177 -110 232
-57 17 16 35 45 40 64 15 53 12 159 -5 225 -11 42 -13 72 -7 106 5 26 9 118
10 203 1 130 -2 167 -18 219 -37 119 -122 214 -240 268 -30 13 -56 25 -58 26
-1 0 4 37 11 80 43 246 -45 381 -212 324z m115 -115 c28 -69 13 -213 -32 -311
-43 -91 -159 -204 -210 -204 -36 0 -49 35 -48 130 1 206 124 420 242 420 28 0
35 -5 48 -35z m127 -407 c58 -29 121 -91 152 -150 26 -50 28 -62 33 -203 l4
-150 -33 33 c-45 46 -101 73 -155 74 -129 2 -173 -155 -108 -380 l6 -22 -48
21 c-65 27 -108 61 -142 112 -32 48 -68 129 -76 173 -17 88 -24 193 -16 248 4
32 9 40 30 43 72 11 173 89 239 186 36 53 39 53 114 15z m46 -502 c84 -44 165
-249 146 -372 -7 -52 -22 -61 -62 -41 -91 48 -162 171 -170 295 -8 122 15 154
86 118z"/>
<path d="M5218 3985 c-2 -1 -34 -5 -73 -9 -339 -32 -729 -233 -1172 -604 -313
-263 -519 -511 -653 -787 -52 -108 -113 -269 -125 -335 -38 -197 -46 -265 -50
-434 -3 -145 9 -216 55 -314 111 -239 404 -435 831 -557 66 -19 131 -36 146
-39 16 -3 73 -14 128 -25 55 -11 123 -22 150 -25 28 -3 66 -8 85 -11 117 -18
316 -28 580 -28 213 0 542 9 630 17 19 2 67 7 105 10 39 4 81 8 95 11 14 2 57
8 95 14 377 58 664 181 850 366 138 137 240 323 270 490 2 17 7 41 11 55 12
51 11 268 -1 355 -58 405 -311 888 -655 1249 -98 102 -193 179 -366 292 -323
213 -558 300 -831 308 -56 2 -103 3 -105 1z m257 -284 c181 -43 333 -115 561
-268 224 -149 385 -313 549 -558 205 -307 317 -598 332 -862 18 -334 -124
-586 -414 -732 -110 -55 -258 -104 -393 -130 -30 -6 -64 -12 -75 -14 -11 -3
-45 -8 -75 -11 -30 -4 -71 -9 -91 -12 -253 -33 -1065 -39 -1249 -10 -14 2 -52
8 -85 11 -90 11 -95 12 -160 24 -89 16 -92 17 -200 45 -149 37 -248 72 -363
127 -196 92 -317 193 -371 309 -25 52 -26 63 -25 210 3 368 111 662 355 965
205 254 618 593 914 750 166 88 322 145 445 160 30 4 57 8 58 10 9 8 242 -4
287 -14z"/>
<path d="M4980 3364 c-153 -18 -225 -44 -295 -106 -205 -179 5 -588 403 -786
88 -44 101 -47 171 -47 60 0 86 5 126 24 163 80 417 330 505 498 33 64 48 140
36 187 -15 60 -100 125 -208 160 -71 22 -167 44 -231 52 -23 3 -52 7 -65 10
-87 18 -321 23 -442 8z m445 -279 c114 -17 184 -33 199 -46 22 -19 -192 -244
-301 -317 -63 -42 -77 -40 -180 24 -125 77 -237 204 -267 301 -6 18 -1 23 26
32 97 32 334 34 523 6z"/>
</g>
</svg>
